<svg data-icon-name="GenericLiquidSprayTender" xmlns="http://www.w3.org/2000/svg" xml:space="preserve" id="generic-liquid-spray-tender__main_shape" x="0" y="0" version="1.0" viewBox="0 0 32 32" class="generic-liquid-spray-tender" style="background-image: none; background-position: 0% 0%; display: inline; fill: rgb(51, 51, 51); height: 65px; width: 65px;"><path d="M12.6 24.2c-1.1 0-2.1-.5-2.8-1.3-.7.8-1.7 1.3-2.8 1.3-1.8 0-3.3-1.2-3.7-2.8H1.1c-.6 0-1-.4-1-1v-1.6c0-.2 0-.3.1-.4-.1-.2-.2-.4-.2-.7 0-.6.3-1 .8-1.3-.2-2 0-4 .5-5.8.1-.4.4-.6.8-.7 1.1-.1 2.2-.3 3.5-.4h.2c1.8-.1 3.5-.2 5.3-.2h.8c2.8 0 5.6.2 8.3.6.4.1.7.3.8.7.6 1.8.7 3.8.6 5.7H23c.1-.4.5-.7 1-.7h.2v-.3c0-.8.6-1.4 1.4-1.4h1.5c.2-.2.4-.3.7-.3h1.5c.6 0 1 .4 1 1V16c0 .6-.4 1-1 1h-1.1v.8h2.6c.6 0 1 .4 1 1v1.6c0 .6-.4 1-1 1H16.3c-.4 1.6-1.9 2.8-3.7 2.8" class="outline" style="fill: rgb(255, 255, 255);"></path><path d="M30.823 20.361h-29.6v-1.6h29.6z" class="primary" style="fill: rgb(54, 124, 43);"></path><path d="M27.26 18.785h-3.3v-2.2h3.3z" class="primary" style="fill: rgb(54, 124, 43);"></path><path d="M2.4 10.9c5.9-.8 11.9-.8 17.9 0 .8 2.6.8 5.3 0 7.9H2.4c-.8-2.6-.8-5.3 0-7.9" class="secondary" style="fill: rgb(255, 222, 0);"></path><path d="M17.8 18.8h-1.1v-8.3c.4 0 .7.1 1.1.1zM12.1 18.8H11v-8.5h1.1zM6.1 18.8H5v-8.2c.4 0 .7-.1 1.1-.1z" class="primary" style="fill: rgb(54, 124, 43);"></path><path d="M1.5 18.1h24.1c.2 0 .4-.2.4-.4v-2h2.4c.2 0 .4-.2.4-.4s-.2-.4-.4-.4h-2.8c-.2 0-.4.2-.4.4v2H1.5c-.2 0-.4.2-.4.4s.1.4.4.4" class="tertiary" style="fill: rgb(2, 3, 3);"></path><circle cx="25.6" cy="17.7" r=".6" class="secondary" style="fill: rgb(255, 222, 0);"></circle><path d="M2.4 12.6c.1-.5.2-1 .4-1.5 5.6-.8 11.4-.8 17 0 .2.5.3 1 .4 1.5-5.9-.6-11.9-.6-17.8 0" class="highlight" style="opacity: 0.3; fill: rgb(255, 255, 255);"></path><path d="M30.275 20.006h-28.9v-.6h28.9z" class="shadow" style="opacity: 0.3; fill: rgb(51, 51, 51);"></path><circle cx="12.6" cy="20.4" r="2.8" class="tertiary" style="fill: rgb(2, 3, 3);"></circle><circle cx="12.6" cy="20.4" r="1.7" class="secondary" style="fill: rgb(255, 222, 0);"></circle><circle cx="12.6" cy="20.4" r=".6" class="shadow" style="opacity: 0.3; fill: rgb(51, 51, 51);"></circle><circle cx="7" cy="20.4" r="2.8" class="tertiary" style="fill: rgb(2, 3, 3);"></circle><circle cx="7" cy="20.4" r="1.7" class="secondary" style="fill: rgb(255, 222, 0);"></circle><circle cx="7" cy="20.4" r=".6" class="shadow" style="opacity: 0.3; fill: rgb(51, 51, 51);"></circle><path d="M29.34 16.003h-1.5v-1.4h1.5z" class="primary" style="fill: rgb(54, 124, 43);"></path><path d="M20.3 15.3c-.9 0-1.7.6-1.9 1.5l-.5 2.1h1.8zM2.5 15.3c.9 0 1.7.6 1.9 1.5l.6 2H3.2zM16.7 18.8l-1.5-3c-.4-.8-1.5-.8-1.8 0l-1.1 2.3 1.3.7zM10.9 18.8l-1.5-3c-.3-.8-1.4-.8-1.8 0l-1.1 2.5 1.6.5z" class="shadow" style="opacity: 0.3; fill: rgb(51, 51, 51);"></path></svg>