<svg data-icon-name="GenericAtv" xmlns="http://www.w3.org/2000/svg" xml:space="preserve" id="generic-atv__ATV" x="0" y="0" version="1.0" viewBox="0 0 32 32" class="generic-atv" style="background-image: none; background-position: 0% 0%; display: inline; fill: rgb(51, 51, 51); height: 65px; width: 65px;"><path d="M26.4 26.1c-3 0-5.4-2.3-5.5-5.2l-1 .6c-.2.1-.3.1-.5.1h-7c-.1 0-.2 0-.3-.1l-.4-.1c-.4 2.7-2.7 4.7-5.5 4.7-3.1 0-5.6-2.5-5.6-5.6 0-1.9 1-3.7 2.6-4.7l-.4-.6-1.3-.1c-.5-.1-.9-.5-.9-1v-1.4c-.3-.1-.6-.5-.6-1 0-.3.1-.6.3-.8-.2-.2-.3-.5-.3-.8 0-.7.5-1.2 1.2-1.2h.1c.1-.6.6-1 1.2-1h1.7c.7 0 1.2.5 1.2 1.2v.6h.7c1.4 0 4 .3 5.8.6.3 0 .6.1.9.1 1 0 1.9-.2 2.8-.6l.8-.4c.1-.1.3-.1.4-.1.2 0 .4.1.5.2.1 0 .1.1.2.1.4-.1.9-.1 1.5-.1h.6l.1-.3h-.6c-.8 0-1.4-.6-1.4-1.3 0-.5.3-.9.7-1.2.2-.4.6-.7 1.1-.7.2 0 .5.1.7.2l.9.6c.1.1.3.2.4.3l1-.4c.1 0 .2-.1.4-.1.4 0 .7.2.9.5l.2.3h.1c.3.1.5.4.6.7l.5 2.2 5.2.6c.7.1 1.1.7 1.1 1.3.4.2.6.7.6 1.2 0 .1 0 .2-.1.3v.3l-.3 1.8c-.1.5-.5.8-1 .8h-.3c1.1 1 1.8 2.5 1.8 4-.2 3-2.7 5.5-5.8 5.5" class="outline" style="fill: rgb(255, 255, 255);"></path><path d="m30.5 13.7-.3-1.3-6.6-.7-.6-.8c-5-1.2-6.1-.1-6.1-.1s-2.3 1.3-2.4 1.3-12-1.5-12-1.5l-.2 1.1v.8l3.2 4.9 6.9 3.1h7l7.5-4.3 1.7-.3z" class="primary" style="fill: rgb(54, 124, 43);"></path><path d="m21.65 9.573 1.058.304-.47 1.634-1.057-.304z" class="tertiary" style="fill: rgb(2, 3, 3);"></path><path d="m21.4 15.2-4.2-.3-3.5.6-10.2-1.1 2.4 4 6.5 2.2h7l7.1-4.2 2.1-.4.6-.8-5.1-.7z" class="shadow" style="opacity: 0.3; fill: rgb(51, 51, 51);"></path><circle cx="6.2" cy="20.6" r="4.6" class="tertiary" style="fill: rgb(2, 3, 3);"></circle><circle cx="6.2" cy="20.6" r="2.7" class="secondary" style="fill: rgb(255, 222, 0);"></circle><circle cx="6.2" cy="20.6" r=".9" class="primary" style="fill: rgb(54, 124, 43);"></circle><circle cx="26.4" cy="20.6" r="4.6" class="tertiary" style="fill: rgb(2, 3, 3);"></circle><circle cx="26.4" cy="20.6" r="2.7" class="secondary" style="fill: rgb(255, 222, 0);"></circle><circle cx="26.4" cy="20.6" r=".9" class="primary" style="fill: rgb(54, 124, 43);"></circle><path d="M12.4 20.6c-.2-6.5-1.5-7.4-1.5-7.4L1.7 12v2.2l6.2.7c2.9.3 4.5 5.7 4.5 5.7M19.4 20.6c.2-6.5 3.5-7.7 3.5-7.7l7.9.9-.3 1.8-6.5-.9c-2.4-.2-4.6 5.9-4.6 5.9M18.2 19.8h-4.4c-.5 0-.9-.4-.9-.9V18c0-.5.4-.9.9-.9h4.4c.5 0 .9.4.9.9v.9c0 .5-.4.9-.9.9" class="secondary" style="fill: rgb(255, 222, 0);"></path><path d="m4.8 11.8 9.3 1.7 3-1.7s.5-1-.4-1.5l-.8.4c-1.3.6-2.8.9-4.3.7-2.3-.3-5.5-.7-6.5-.5.1-.2-1.3.3-.3.9" class="tertiary" style="fill: rgb(2, 3, 3);"></path><path d="m20.5 9.7 3.6 1-.5-2.3-.5-.2-.3-.6-1.8.7z" class="primary" style="fill: rgb(54, 124, 43);"></path><path d="m21.3 8.4-.6-.5c0-.1-.2-.3-.2-.3l-.9-.6h-.1c-.1 0-.1 0-.1.1 0 0 0 .1.1.1l.9.5-1.2-.1c-.2 0-.4.1-.4.3s.2.3.4.3h1.4s.1 0 .1-.1l.6.6c-.2 0 .1-.1 0-.3" class="tertiary" style="fill: rgb(2, 3, 3);"></path><path d="m23.6 11.7 6.6.7.3 1.3-5.9-.7z" class="shadow" style="opacity: 0.3; fill: rgb(51, 51, 51);"></path><path d="m30.8 13-.9-.1.1-.6h.2c.1 0 .2-.1.2-.2s-.1-.2-.2-.2l-6.3-.7c-.1 0-.2.1-.2.2s.1.2.2.2h.4l-.1.6-2.1-.2c-.1 0-.2.1-.2.2s.1.2.2.2l4.9.6 3.7.4c.1 0 .2-.1.2-.2.1-.1 0-.2-.1-.2m-1.4-.1-2.1-.2.1-.6 2.1.2zm-4.7-1.2 2.2.3-.1.6-2.2-.3zM4.1 8.9H2.4c-.1 0-.2.1-.2.2v.8h-1c-.1 0-.2.1-.2.2s.1.2.2.2h1.1v1.2H1.2c-.1 0-.2.1-.2.2s.1.2.2.2h2.9c.1 0 .2-.1.2-.2V9.1c0-.1-.1-.2-.2-.2m-1.5.4h1.3v.6H2.6zm0 2.2v-1.2h1.3v1.2z" class="tertiary" style="fill: rgb(2, 3, 3);"></path></svg>