<svg data-icon-name="HayBaler" xmlns="http://www.w3.org/2000/svg" xml:space="preserve" id="hay-baler__main_shape" x="0" y="0" version="1.0" viewBox="0 0 32 32" class="hay-baler" style="background-image: none; background-position: 0% 0%; display: inline; fill: rgb(51, 51, 51); height: 65px; width: 65px;"><path d="M28.656 26.909a3.35 3.35 0 0 1-3.279-2.69l-2.437-1.218a36 36 0 0 1-1.803.991 1 1 0 0 1-.571.099l-2.164-.264a5.2 5.2 0 0 1-4.746 3.081c-2.549 0-4.689-1.855-5.132-4.287l-.24-.03c-.131-.009-1.672-.163-2.486-1.458C4.019 20.647 0 19.219 0 16.256V10.35c0-2.19 1.516-3.476 2.934-3.948a1 1 0 0 1 .097-.027c.305-.068 3.657-.786 4.312-.929l.389-.663a1 1 0 0 1 .862-.496h5.344c6.143 0 11.763 3.762 11.999 3.922q.056.04.107.085c.128.115 3.144 2.891 3.144 8.243 0 1.03-.614 2.124-1.869 3.319l.692.433q.324-.067.646-.067c1.844 0 3.344 1.5 3.344 3.344s-1.501 3.343-3.345 3.343" class="outline" style="fill: rgb(255, 255, 255);"></path><path d="M29.125 22.162v2.812L22.9 21.862c-1.247.75-2.212 1.238-2.212 1.238L8.406 21.6s-1.219-.094-1.781-1.031a3 3 0 0 1-.178-.3 10 10 0 0 1-.394-.872c-.506-1.266-1.069-3.028-1.247-3.6-.009-.038-.019-.066-.028-.094L4.75 15.6v-3.75l1.538-2.625.656-1.125 1.041-1.772.609-1.041h5.344c5.906 0 11.438 3.75 11.438 3.75s2.812 2.531 2.812 7.5c0 1.097-1.153 2.344-2.55 3.45z" class="primary" style="fill: rgb(54, 124, 43);"></path><path d="M29.125 22.162v2.812L22.9 21.862a28 28 0 0 0 2.738-1.875z" class="shadow" style="opacity: 0.3; fill: rgb(51, 51, 51);"></path><circle cx="28.656" cy="23.566" r="2.344" class="quaternary" style="fill: rgb(51, 51, 51);"></circle><circle cx="28.656" cy="23.566" r=".469" class="secondary" style="fill: rgb(255, 222, 0);"></circle><path d="M7.984 6.328 6.944 8.1h-.038l-.618 1.125L4.75 11.85v3.75l.028.103c0 .028.009.056.028.094.103.356.337 1.134.637 1.969.188.553.403 1.134.609 1.631.141.338.272.647.394.872C5.753 20.1 1 18.862 1 16.256V10.35c0-1.875 1.406-2.719 2.25-3 .666-.15 3.553-.759 4.734-1.022" class="quaternary" style="fill: rgb(51, 51, 51);"></path><path d="M20.688 20.287V23.1L8.406 21.6s-1.219-.094-1.781-1.031a3 3 0 0 1-.178-.3 10 10 0 0 1-.394-.872 27 27 0 0 1-.609-1.631c-.3-.834-.534-1.612-.637-1.969-.009-.038-.019-.066-.028-.094L4.75 15.6h10.219c2.812 0 5.719 2.437 5.719 4.687" class="shadow" style="opacity: 0.3; fill: rgb(51, 51, 51);"></path><path d="M27.25 14.662s-5.288-4.266-19.275-4.659a75 75 0 0 0-2.1-.028l.413-.75.618-1.125h.038c.441 0 .872.009 1.294.019 16.171.318 19.012 6.543 19.012 6.543" class="highlight" style="opacity: 0.3; fill: rgb(255, 255, 255);"></path><path d="M25.347 15.59c-.441-.094-7.266-1.603-17.897-1.837q-1.308-.028-2.7-.028V11.85c1.013 0 1.997.028 2.953.075 10.219.506 17.184 3.459 17.644 3.665" class="secondary" style="fill: rgb(255, 222, 0);"></path><circle cx="13.656" cy="21.691" r="4.219" class="quaternary" style="fill: rgb(51, 51, 51);"></circle><circle cx="13.656" cy="21.691" r="2.344" class="secondary" style="fill: rgb(255, 222, 0);"></circle></svg>