<svg data-icon-name="CombineHeaderCorn" xmlns="http://www.w3.org/2000/svg" xml:space="preserve" viewBox="0 0 32 32" class="combine-header-corn" style="background-image: none; background-position: 0% 0%; display: inline; fill: rgb(51, 51, 51); height: 32px; width: 32px;"><path id="combine-header-corn__outline" d="M8.5 27.3c-.1 0-.2 0-.3-.1L.7 24.4c-.5-.1-.7-.5-.7-.9V13.2c0-.3.1-.5.3-.7L4 8.8c.2-.2.4-.3.7-.3.2 0 .4.1.5.2l2 1.3 3.4-4c.2-.2.5-.3.7-.3h.1c.3.1.6.3.7.6l3.9 9.3 1.8 1.1 2.3-1.5c.2-.1.4-.2.5-.2.2 0 .5.1.7.3l10.3 9.4c.3.3.4.7.3 1.1s-.5.6-.9.6H12.2c-.2 0-.3 0-.4-.1l-1.8-.9-.7 1.4c-.1.3-.5.5-.8.5" class="outline" style="fill: rgb(255, 255, 255);"></path><g id="combine-header-corn__main_shape"><path d="M16 17.9H1.9l5.6-6.7 7.8 5.1z" class="shadow" style="opacity: 0.3; fill: rgb(51, 51, 51);"></path><path d="M25.4 25.4H12.2l-2.6-1.3.8-1.5L1 18.7v-.8h19.7z" class="quaternary" style="fill: rgb(51, 51, 51);"></path><path d="M24.4 25.4v-.9H12.2l-.9-2.8L1 17.9v-4.7l3.7-3.7 2.8 1.7 3.8-4.5 4 9.6 2.6 1.6 2.8-1.9L31 25.4z" class="primary" style="fill: rgb(54, 124, 43);"></path><path d="m10.4 22.6-.8 1.5-1.1 2.2L1 23.5v-4.8z" class="primary" style="fill: rgb(54, 124, 43);"></path><path d="M17.9 24.5H16l1.9-5.8zM4.7 9.5l6.6 12.2-.9-.4L7.6 17 1 13.2z" class="shadow" style="opacity: 0.3; fill: rgb(51, 51, 51);"></path><circle cx="4.7" cy="17" r=".9" class="secondary" style="fill: rgb(255, 222, 0);"></circle><path d="m15.2 16.3-7.8-5.1 3.8-4.5z" class="shadow" style="opacity: 0.3; fill: rgb(51, 51, 51);"></path></g></svg>