<svg data-icon-name="PlantingBoxDrill" xmlns="http://www.w3.org/2000/svg" xml:space="preserve" id="planting-box-drill__main_shape" x="0" y="0" version="1.1" viewBox="0 0 32 32" class="planting-box-drill" style="background-image: none; background-position: 0% 0%; display: inline; fill: rgb(51, 51, 51); height: 65px; width: 65px;"><path d="M16.5 26.3c-1.6 0-3.2-.5-4.4-1.5-1.1 1-2.5 1.5-4 1.5-2.5 0-4.7-1.5-5.7-3.8H1c-.6 0-1-.4-1-1v-2.1c0-.4.3-.8.7-.9l1.6-.5c.9-2.3 3.1-3.9 5.6-4l1.5-9.5c.1-.5.5-.8 1-.8h4.7c.6 0 1 .4 1 1v.9h7.4c.6 0 1 .4 1 1v.9h1.3c1.5 0 2.4.8 2.4 2.2v3.5q0 .6-.6.9l-3.2 1.6v1.2H31c.6 0 1 .4 1 1v3.8c0 .6-.4 1-1 1h-8.3c-1.2 2.2-3.6 3.6-6.2 3.6" class="outline" style="fill: rgb(255, 255, 255);"></path><path d="M2.9 20.2C2.9 17.3 5.2 15 8 15s5.2 2.3 5.2 5.2-2.3 5.2-5.2 5.2-5.1-2.4-5.1-5.2" class="quaternary" style="fill: rgb(51, 51, 51);"></path><path d="m23.5 15 3.8-1.9V9.7c0-.6-.2-1.2-1.4-1.2h-2.3V15z" class="primary" style="fill: rgb(54, 124, 43);"></path><path d="m23.5 15 3.8-1.9V9.7c0-.6-.2-1.2-1.4-1.2h-2.3V15z" class="shadow" style="opacity: 0.3; fill: rgb(51, 51, 51);"></path><path d="M23.5 17.8V6.6h-8.4V4.7h-4.7L8.5 16.9 1 19.5v2.1h30v-3.8z" class="primary" style="fill: rgb(54, 124, 43);"></path><circle cx="16.5" cy="19.2" r="6.1" class="quaternary" style="fill: rgb(51, 51, 51);"></circle><circle cx="16.5" cy="19.2" r="3.3" class="secondary" style="fill: rgb(255, 222, 0);"></circle><circle cx="16.5" cy="19.2" r="1.4" class="shadow" style="opacity: 0.3; fill: rgb(51, 51, 51);"></circle><path d="M11.3 5.6h2.8v1.9h-2.8z" class="highlight" style="opacity: 0.3; fill: rgb(255, 255, 255);"></path><path d="m16 11.2-4.7-1.8H16z" class="shadow" style="opacity: 0.3; fill: rgb(51, 51, 51);"></path></svg>