<svg data-icon-name="HayForageHarvesterAttachments" xmlns="http://www.w3.org/2000/svg" xml:space="preserve" id="hay-forage-harvester-attachments__outline" x="0" y="0" version="1.0" viewBox="0 0 32 32" class="hay-forage-harvester-attachments" style="background-image: none; background-position: 0% 0%; display: inline; fill: rgb(51, 51, 51); height: 32px; width: 32px;"><path d="M24.963 27.312c-.416 0-.789-.258-.936-.647l-.141-.373a6.145 6.145 0 0 1-8.727-2.071 1 1 0 0 1-.166-.02l-2.655.006a4.94 4.94 0 0 1-4.617 3.105 4.95 4.95 0 0 1-4.612-3.084h-.89c-.418 0-.792-.26-.938-.651L.062 20.296a1 1 0 0 1 .005-.709l1.389-3.594a1 1 0 0 1-.401-1.035l.506-2.278a1 1 0 0 1 .639-.725 41 41 0 0 1 3.962-1.197A1 1 0 0 1 6.877 10l4.145-1.132a6.6 6.6 0 0 0-1.215-.48 6.3 6.3 0 0 0-1.728-.241c-2.089 0-3.757 1.008-4.459 1.512l-.007.251a1 1 0 0 1-.996.972L1 10.888a1 1 0 0 1-1-1V8.475c0-.287.123-.559.337-.749.14-.124 3.489-3.038 8.309-3.038.863 0 1.732.095 2.582.282 4.101.903 6.375 3.577 7.257 4.862l.077.009v-2.21a1 1 0 0 1-.938-.998c0-.939.679-1.938 1.938-1.938h11.405a1 1 0 0 1 1 1v.938a1 1 0 0 1-1 1h-.147l-1.605 8.196a1 1 0 0 1 .516.855l.02.98a1 1 0 0 1-.794.998q.218.284.401.613h.883c1.003 0 1.76.752 1.76 1.75v2.269a1.76 1.76 0 0 1-1.376 1.713l.823.411A1 1 0 0 1 31 27.313zM21.5 10.368c1.42.352 2.552.809 3.445 1.39.695.447 1.272.913 1.738 1.341l1.006-4.529h-6.188z" class="outline" style="fill: rgb(255, 255, 255);"></path><path d="M27.062 16.008h-1.875s-.656-4.031-3.938-4.594c-.375-.094-.75.127-.75-.341V8.508c0-.562.375-.937.938-.937h7.5z" class="quinary" style="fill: rgb(255, 255, 255);"></path><circle cx="30.245" cy="23.293" r=".755" class="quaternary" style="fill: rgb(51, 51, 51);"></circle><path d="M30.241 22.534v-.75c-.45 0-.75-.3-.75-.759h-.759v.759l-1.125 2.259c.6 0 1.125.534 1.125 1.134L31 26.313h-6.038l-2.269-6.038v-1.509s4.378-2.494 6.038 1.509h1.509c.459 0 .759.3.759.75v2.269zM18.035 11.003c-.251-.476-2.352-4.028-7.023-5.057C5.392 4.709 1.19 8.306 1 8.475v1.413l1.613-.006.02-.723c.288-.243 3.489-2.853 7.446-1.732 2.58.73 3.97 2.619 4.378 3.222z" class="secondary" style="fill: rgb(255, 222, 0);"></path><path d="M30.966 5.696H19.56c-.938 0-.938.938-.938.938h12.343z" class="primary" style="fill: rgb(54, 124, 43);"></path><path d="M28.475 10.383h-3.774l.442-.698-.469-.281-1.125 1.781.469.281.436-.692 2.745 5.224z" class="tertiary" style="fill: rgb(128, 128, 128);"></path><path d="M19.562 6.633v5.938l.938 4.261H28l1.998-10.2zm7.5 9.375h-1.875s-.656-4.031-3.938-4.594c-.375-.094-.75-.052-.75-.52V8.508c0-.562.375-.937.938-.937h7.5z" class="quaternary" style="fill: rgb(51, 51, 51);"></path><path d="M27.062 16.008h-1.875s-.656-4.031-3.938-4.594c-.375-.094-.75.127-.75-.341V8.508c0-.562.375-.937.938-.937h7.5z" class="window" style="opacity: 0.3; fill: rgb(93, 201, 232);"></path><path d="m27.25 15.203-.572 2.484h-2.372A5.1 5.1 0 0 0 20.5 16a5.153 5.153 0 0 0-5.156 5.156c0 .731.15 1.425.422 2.044l-4.163.009c.066-.281.103-.581.103-.881a3.98 3.98 0 0 0-3.984-3.984 3.98 3.98 0 0 0-3.881 4.884H2.219L1 19.947l1.678-4.341-.647-.431.506-2.278a40 40 0 0 1 4.509-1.322l.094-.609 4.772-1.303.787 1.059c2.728-.197 4.772-.019 6.047.15 3.544.459 5.034 1.322 5.653 1.725 1.342.862 2.326 1.884 2.851 2.606" class="primary" style="fill: rgb(54, 124, 43);"></path><path d="M24.306 17.687h-3.375v5.503l-5.165.01a5.1 5.1 0 0 1-.422-2.044A5.153 5.153 0 0 1 20.5 16c1.509 0 2.869.647 3.806 1.687" class="primary" style="fill: rgb(54, 124, 43);"></path><path d="M9.469 11.62c-1.158.083-2.018.216-3.735.484 0 0-1.305.203-3.192.796h-.001c0 .002 1.288-.368 3.099-.612 1.307-.175 2.279-.18 3.698-.182a53 53 0 0 1 4.464.188l.366-.672a33 33 0 0 0-4.699-.002" class="secondary" style="fill: rgb(255, 222, 0);"></path><path d="M7.722 18.344a3.98 3.98 0 0 0-3.881 4.884 3.97 3.97 0 0 0 3.881 3.085 3.964 3.964 0 0 0 3.881-3.103c.066-.281.103-.581.103-.881a3.98 3.98 0 0 0-3.984-3.985m0 6.159c-1.2 0-2.175-.975-2.175-2.175s.975-2.175 2.175-2.175 2.175.975 2.175 2.175-.975 2.175-2.175 2.175" class="quaternary" style="fill: rgb(51, 51, 51);"></path><circle cx="7.722" cy="22.328" r="2.175" class="quaternary" style="fill: rgb(51, 51, 51);"></circle><circle cx="7.722" cy="22.328" r="2.175" class="secondary" style="fill: rgb(255, 222, 0);"></circle><path d="M3.119 21.947a4.57 4.57 0 0 1 1.045-2.861l-2.471-.938-.692 1.798 1.223 3.271.894.005v-1.275zM2.54 12.9a30 30 0 0 1 5.825-.399c1.505.039 2.87.188 4.07.386l-1.225 2.487a23.45 23.45 0 0 0-9.174-.189zM15.19 19.088h-3.906a4.56 4.56 0 0 1 1.043 2.876h.001v1.256h2.861a5.663 5.663 0 0 1 .001-4.132" class="quaternary" style="fill: rgb(51, 51, 51);"></path><path d="M20.5 15.454a5.7 5.7 0 0 0-5.702 5.702c0 .729.142 1.423.391 2.064h8.722v-5.537h1.105a5.69 5.69 0 0 0-4.516-2.229" class="primary" style="fill: rgb(54, 124, 43);"></path><path d="M24.306 17.687A5.1 5.1 0 0 0 20.5 16a5.153 5.153 0 0 0-5.156 5.156c0 .731.15 1.425.422 2.044a5.15 5.15 0 0 0 4.734 3.113 5.153 5.153 0 0 0 5.156-5.156c0-1.341-.515-2.56-1.35-3.47M20.5 23.969c-1.556 0-2.812-1.256-2.812-2.812s1.256-2.812 2.812-2.812 2.812 1.256 2.812 2.812-1.256 2.812-2.812 2.812" class="quaternary" style="fill: rgb(51, 51, 51);"></path><circle cx="20.5" cy="21.156" r="2.812" class="secondary" style="fill: rgb(255, 222, 0);"></circle><path d="M28.73 16.704h-3.722v.98h3.742z" class="primary" style="fill: rgb(54, 124, 43);"></path><path d="m14.202 12.793.335-.627 3.377.047-.335.629zM13.614 13.892l.336-.629 3.377.049-.335.627zM13.027 14.989l.336-.627 3.377.048-.336.628z" class="quaternary" style="fill: rgb(51, 51, 51);"></path></svg>