<svg data-icon-name="ImplementCart" xmlns="http://www.w3.org/2000/svg" xml:space="preserve" id="implement-cart__main_shape" x="0" y="0" version="1.0" viewBox="0 0 32 32" class="implement-cart" style="background-image: none; background-position: 0% 0%; display: inline; fill: rgb(51, 51, 51); height: 32px; width: 32px;"><path d="M14.125 27.312a5.695 5.695 0 0 1-5.688-5.688l.001-.089-4.244-2.829a1 1 0 0 1-.445-.832v-1.461l-2.52-2.52a1 1 0 0 1-.293-.707V8.561A1 1 0 0 1 0 7.562V5.688a1 1 0 0 1 1-1h25.312a1 1 0 0 1 1 1v1.875a1 1 0 0 1-.938.998v4.627c0 .265-.105.52-.293.707l-2.52 2.52v1.461a1 1 0 0 1-.285.699l7.864 1.123a1 1 0 0 1 .858.99v1.875a1 1 0 0 1-1 1H19.473a5.71 5.71 0 0 1-5.348 3.749" class="outline" style="fill: rgb(255, 255, 255);"></path><path d="M31 22.562H17.875v-3.75L31 20.688z" class="primary" style="fill: rgb(54, 124, 43);"></path><path d="M31 22.562H17.875v-3.75L31 20.688z" class="shadow" style="opacity: 0.3; fill: rgb(51, 51, 51);"></path><path d="M25.375 6.625H1.938v6.563L4.75 16v1.875l5.625 3.75h7.5l4.687-3.75V16l2.813-2.812z" class="primary" style="fill: rgb(54, 124, 43);"></path><circle cx="14.125" cy="21.625" r="4.688" class="quaternary" style="fill: rgb(51, 51, 51);"></circle><circle cx="14.125" cy="21.625" r="2.812" class="secondary" style="fill: rgb(255, 222, 0);"></circle><path d="M22.562 16H4.75l-2.812-2.812h23.437z" class="shadow" style="opacity: 0.3; fill: rgb(51, 51, 51);"></path><path d="M1.938 7.562h23.438V8.5H1.938z" class="secondary" style="fill: rgb(255, 222, 0);"></path><circle cx="14.125" cy="21.625" r=".938" class="shadow" style="opacity: 0.3; fill: rgb(51, 51, 51);"></circle><path d="M1 5.688h25.312v1.875H1z" class="quaternary" style="fill: rgb(51, 51, 51);"></path></svg>