<svg data-icon-name="NutrientApplicationHagieSprayer" xmlns="http://www.w3.org/2000/svg" xml:space="preserve" id="nutrient-application-hagie-sprayer__Layer_1" x="0" y="0" version="1.1" viewBox="0 0 32 32" class="nutrient-application-hagie-sprayer" style="background-image: none; background-position: 0% 0%; display: inline; fill: rgb(51, 51, 51); height: 65px; width: 65px;"><path d="m5.6 23.6-.3.7c-.1.2-.3.4-.6.5h-.3c-.1 0-.3-.1-.5-.2L3 24c-.4-.3-.5-.8-.3-1.3l.8-1.6c-.4 0-.8-.2-1-.5-.3-.4-.5-.8-.4-1.3l.6-3.8-1.5-.1c-.5 0-.9-.5-.9-1v-3.1c0-.6.4-1 1-1h13.5c0-.6.4-1 1-1h10.4c.6 0 1 .4 1 1h.8c.4 0 .7.2.9.5l3 5.3c.2.3.2.7 0 1-.1.3-.5.5-.8.5l-2-.1-1.7 3.1c-.2.3-.5.5-.9.5h-.4v.5c0 2.5-2 4.5-4.5 4.5s-4.5-2-4.5-4.5v-.5h-2.6v.5c0 2.5-2 4.5-4.5 4.5-1.9 0-3.4-1-4.4-2.5" class="outline" style="fill: rgb(255, 255, 255);"></path><path d="m6.6 17.6 1 .5-3 5.7-.9-.6z" class="primary" style="fill: rgb(54, 124, 43);"></path><path d="m6.6 17.6 1 .5-3 5.7-.9-.6z" class="shadow" style="opacity: 0.3; fill: rgb(51, 51, 51);"></path><path d="M3.3 19.6c0 .3.2.6.5.6h22.5l2.1-3.7-.7-.1-1.7 3h-1.2L27 16 4.1 14.2z" class="primary" style="fill: rgb(54, 124, 43);"></path><path d="M4.8 15.1h2.7v.8H4.8zM4.8 16.1h2.7v.8H4.8z" class="tertiary" style="fill: rgb(51, 51, 51);"></path><path d="M16.4 10.6h9.8v1h-9.8z" class="primary" style="fill: rgb(54, 124, 43);"></path><path d="M1.6 11.3h26.5l3 5.3-29.5-2.2z" class="tertiary" style="fill: rgb(51, 51, 51);"></path><path d="M26.8 16.3 4.1 14.6 4 15.7l22.2 1.4z" class="shadow" style="opacity: 0.3; fill: rgb(51, 51, 51);"></path><path d="M9.9 18.3v-.9c0-.5.4-.8.8-.8H19c.5 0 .8.4.8.8v.9c0 .5-.4.8-.8.8h-8.3c-.5 0-.7-.3-.8-.8" class="highlight" style="opacity: 0.3; fill: rgb(255, 255, 255);"></path><path d="M16.1 10.3h10.4v.7H16.1z" class="secondary" style="fill: rgb(255, 222, 0);"></path><circle cx="10" cy="21.6" r="3.5" class="tertiary" style="fill: rgb(51, 51, 51);"></circle><circle cx="10" cy="21.6" r="2.1" class="secondary" style="fill: rgb(255, 222, 0);"></circle><circle cx="10" cy="21.6" r=".7" class="primary" style="fill: rgb(54, 124, 43);"></circle><circle cx="21.5" cy="21.6" r="3.5" class="tertiary" style="fill: rgb(51, 51, 51);"></circle><circle cx="21.5" cy="21.6" r="2.1" class="secondary" style="fill: rgb(255, 222, 0);"></circle><circle cx="21.5" cy="21.6" r=".7" class="primary" style="fill: rgb(54, 124, 43);"></circle><path d="M4.4 18.2h2.2v.7H4.4zM1.6 11.3v3.1l15.2 1.1h.2l14.1 1.1-3-5.3zm25.2.8-.9 1-.9-1zm-.4 1.7 1.4-1.5 1.7 3.4-1.5-.1zM25 15.4l.9-1 1 1.1zm-.9-3 1.2 1.4-1.2 1.4zm-5.6 2.5 4.9-2.5v2.8zm-1-2.7h4.6l-4.6 2.3zm-.9 2.4L13 12.1h3.7v2.5zm-9.3-.5 4.2-1.9 3.7 2.4zm-1-2h3.4l-3.4 1.5zm-.7 1.6-2.4-1.6h2.4zm-3.3-1.3 2 1.3-2-.1z" class="secondary" style="fill: rgb(255, 222, 0);"></path></svg>