<svg xmlns="http://www.w3.org/2000/svg" fill="none" viewBox="0 0 32 32">
    <path fill="#fff" fill-rule="evenodd" d="M22.514 4.919a1.691 1.691 0 0 0-.158-.414 1.522 1.522 0 0 0-.847-.71 1.662 1.662 0 0 0-.477-.09h-.03S21 3.705 21 4.6v-.895h-8.325c-.177 0-.505 0-.849.038-.313.035-.807.115-1.211.376a1 1 0 0 0 .543 1.84c.001 0 .007 0 .021.007a.206.206 0 0 1 .021.011v4.228a1 1 0 0 0-.9.995v1.9h-.13v-1.408l.001-.002c.002-.03.038-.571-.4-.961a1.215 1.215 0 0 0-.633-.289c-.129-.019-.244-.016-.276-.015h-.11c-.122-.001-.339-.003-2.087 0-1.713.004-3.067.84-4.003 1.69A9.736 9.736 0 0 0 .95 14.202a5 5 0 0 0-.647.864 3.875 3.875 0 0 0-.232.464l-.005.013-.002.006v.002l-.001.002L1 15.9l-.938-.347a1 1 0 0 0 .31 1.125l.294.238a6.434 6.434 0 1 0 11.455 5.805 1 1 0 0 0 .976.777h.04l.063.002h3.276a6.436 6.436 0 0 0 11.496-.9H30c.534 0 1.042-.186 1.41-.584.355-.385.49-.872.49-1.316v-.837c.005-.043.009-.087.011-.13.032-.53-.118-1.06-.525-1.45a1.671 1.671 0 0 0-.336-.247l.741-3.773.017-.088.173-.882a1 1 0 0 0-.485-1.061L31 13.1l.496-.868-.002-.002-.004-.002-.01-.005-.032-.018a13.577 13.577 0 0 0-.539-.276c-.367-.178-.901-.42-1.585-.688A29.026 29.026 0 0 0 24.39 9.82V8.354a.999.999 0 0 0-.447-.834l.832-1.413a1 1 0 0 0-.862-1.507v1-1H23.861l-.094.005a3.581 3.581 0 0 0-1.253.314Zm1.398.681s-.995 0-1.54.645a1.398 1.398 0 0 0-.287.553c-.04.145-.062.308-.062.49v1.066H21.6v2.055a29.903 29.903 0 0 0-1.273-.107l-.038-.002V5.6h1.252s.058-.221 0-.453a.69.69 0 0 0-.063-.164c-.152-.278-.478-.278-.478-.278h-8.316c-.121 0-.293 0-.483.01H12.2c-.188.011-.393.032-.583.072a1.404 1.404 0 0 0-.46.172c.089 0 .172.012.25.031.492.124.774.576.793.608l.001.002H12.2v5.6h-.9v2.9H9.791a5.414 5.414 0 0 0-.62-.326v-2.087c0-.074 0-.152-.065-.21-.062-.056-.167-.053-.225-.052H8.743c-.116-.001-.326-.003-2.075 0-2.749.006-4.503 2.681-4.917 3.384C1.19 15.388 1 15.9 1 15.9l1.021.826-.098.12a5.434 5.434 0 1 0 9.529 4.753h1.645v.899h.103v.002h3.875a5.435 5.435 0 0 0 10.177-.9H30c.6 0 .9-.4.9-.9v-.9a1.6 1.6 0 0 0 .013-.127.9.9 0 0 0-.113-.537.646.646 0 0 0-.18-.19.899.899 0 0 0-.52-.146h-.223l.02-.1h.003l.91-4.63.016-.083L31 13.1s-2.902-1.657-7.61-2.446v-2.3h-.472V7.288l.994-1.688Zm-4.58 4.603-1.592-.726.45-.727-.435-.262-1.094 1.79.398.297.344-.555 1.929 2.607V14.1h-1.975c0-1.896-2.076-3.792-4.157-3.8h-.012V7.5c0-.06.004-.116.012-.169.075-.487.48-.731.975-.731h4.17c.52 0 .836.251.944.604.029.093.043.192.043.296v2.703Zm-1-2.535V7.6h-.117l.055.031.062.037ZM17.294 7.6h-3.107v1.81A5.373 5.373 0 0 1 15.7 10a1 1 0 0 1 .108-.244l1.093-1.79a.996.996 0 0 1 .393-.366Zm.734 4.945c.077.18.142.366.193.555h.11v-.144l-.303-.411Z" clip-rule="evenodd"/>
    <path fill="gray" d="m18.19 8.75-.435-.262-1.094 1.79.398.297L18.19 8.75Z"/>
    <path fill="gray" d="m19.44 10.252.056 2.596-2.12-2.866.319-.526 1.744.796Z"/>
    <path fill="#5DC9E8" d="m19.612 14.231-2.485.235s-.315-4.216-4.015-4.216v-3.7h5.6c.7 0 .9.3.9.9v6.781Z" opacity=".3"/>
    <path fill="#367C2B" d="M30.1 18.8h-1.9v-4.7H9.63l-3.923-.78L1 15.9l4.7 3.8v1.9h7.5v.9h5.6v-.9H30c.6 0 .9-.4.9-.9v-.9c.1-.7-.3-1-.8-1Z"/>
    <path fill="#333" d="M30.1 18.8h-1.9l-1.14-4.861-6.186.115-9.799 1.645-5.357-2.418L1 15.9l4.7 3.8v1.9h7.5v.9h5.6v-.9H30c.6 0 .9-.4.9-.9v-.9c.1-.7-.3-1-.8-1Z" opacity=".3"/>
    <path fill="#333" d="M6.2 25.634a5.434 5.434 0 1 0 0-10.868 5.434 5.434 0 0 0 0 10.868Z"/>
    <path fill="#FFDE00" d="M6.2 23.288a3.088 3.088 0 1 0 0-6.176 3.088 3.088 0 0 0 0 6.176Z"/>
    <path fill="#333" d="M6.2 21.632a1.432 1.432 0 1 0 0-2.864 1.432 1.432 0 0 0 0 2.864Z" opacity=".3"/>
    <path fill="#333" d="M22 25.634a5.434 5.434 0 1 0 0-10.868 5.434 5.434 0 0 0 0 10.868Z"/>
    <path fill="#FFDE00" d="M22 23.288a3.088 3.088 0 1 0 0-6.176 3.088 3.088 0 0 0 0 6.176Z"/>
    <path fill="#333" d="M22 21.632a1.432 1.432 0 1 0 0-2.864 1.432 1.432 0 0 0 0 2.864Z" opacity=".3"/>
    <path fill="#367C2B" d="M29.7 19.7h-.6s-.9 0-1.2-.9c-.4-1.4-1.52-4.67-7.82-4.67l.21-3.83c6.502.397 10.71 2.8 10.71 2.8l-1.3 6.6Z"/>
    <path fill="#333" d="m31 13.1-1.1 5.6s-.8 0-1-.9c-.3-.9-1.1-5.2-1.1-5.2l3.2.5ZM12.2 5.6v10.3h6.144L20.29 14V5.6H12.2Zm7.242 8.5h-2.085c0-1.9-2.085-3.8-4.17-3.8V7.5c0-.6.44-.9.988-.9h4.17c.658 0 .987.4.987.9v6.6h.11Z"/>
    <path fill="#367C2B" d="M16 15v.9h-4.7V11.2h1c2 0 3.7 1.7 3.7 3.8Z"/>
    <path fill="#333" d="m16 15 .067.908-.909-.035s-.198-2.354-1.195-3.036c-.997-.681-2.663-.638-2.663-.638V11.2h1c2 0 3.7 1.7 3.7 3.8Z" opacity=".3"/>
    <path fill="#333" d="M13.2 16.9H17s-.9.884-.9 3.634v1.964h-3.003V16.9h.103Z"/>
    <path fill="#fff" d="m30.81 14.07-1.011-.844 1.134.185-.123.66Z" opacity=".3"/>
    <path fill="#333" d="M5.551 13.518c1.423 0 3.13.65 3.62.33v-2.145c0-.078.005-.164-.065-.227-.07-.062-.196-.05-.246-.05-.245 0 .078-.005-2.192 0-3.165.006-5.011 3.55-5.011 3.55 1.573 0 1.573-1.458 3.894-1.458ZM16 15.9a.9.9 0 1 0 0-1.8.9.9 0 0 0 0 1.8Z"/>
    <path fill="#367C2B" d="M21 4.705h-8.316c-.353 0-1.133 0-1.526.254.665 0 1.043.641 1.043.641h9.34s.088-.339-.063-.617c-.152-.278-.478-.278-.478-.278Z"/>
    <path fill="#FFDE00" d="M20.6 11.248c6.29.236 8.047 1.301 8.047 1.301l.155-.177c-1.104-.392-4.33-1.498-8.202-1.655v.531Z"/>
    <path fill="#367C2B" d="M6.2 14.1c3.1 0 3.18 1.802 5.28 1.802 0 0-1.08-2.702-5.28-2.702S1 15.9 1 15.9c2.1 0 2.1-1.8 5.2-1.8Z"/>
    <path fill="#333" d="M23.912 5.6s-1.889 0-1.889 1.688v4.976h.895V7.288l.994-1.688Z"/>
    <path fill="#333" d="M23.489 8.354H21.6v3.076c0 .66.398.989.895.989s.894-.44.894-.989V8.354h.1ZM26.558 15.674l-.778-.773-.692-2.673s.425-.014.655.199c.23.212.815 3.247.815 3.247ZM27.847 16.586l-.755-.604-.817-3.409s.425-.013.654.199c.23.212.918 3.814.918 3.814Z"/>
</svg>