<svg data-icon-name="CuttersAndShreddersRotaryCutters" xmlns="http://www.w3.org/2000/svg" xml:space="preserve" id="cutters-and-shredders-rotary-cutters__main_shape" x="0" y="0" version="1.0" viewBox="0 0 32 32" class="cutters-and-shredders-rotary-cutters" style="background-image: none; background-position: 0% 0%; display: inline; fill: rgb(51, 51, 51); height: 65px; width: 65px;"><path d="M15.062 25.933a1 1 0 0 1-1-1v-.07l-.812-.116v.184a1 1 0 0 1-1 1H8.5a1 1 0 0 1-1-1v-1.843a3.82 3.82 0 0 1-3.688 2.843A3.82 3.82 0 0 1 0 22.117a3.81 3.81 0 0 1 1.875-3.271v-.476a2.88 2.88 0 0 1 2.875-2.875h14.558l8.262-9.086.586-2.343a1 1 0 0 1 .97-.758H31a1 1 0 0 1 .97 1.242l-3.283 13.148 2.556.64a1 1 0 0 1 .757.97v2.812c0 .266-.105.52-.293.707l-2.812 2.812a1 1 0 0 1-.707.293zM6.443 19.37A3.8 3.8 0 0 1 7.5 21.155v-.91c0-.368.202-.701.516-.875zm19.07-5.855.301-.101.079-.318z" class="outline" style="fill: rgb(255, 255, 255);"></path><circle cx="3.812" cy="22.117" r="2.812" class="quaternary" style="fill: rgb(51, 51, 51);"></circle><circle cx="3.812" cy="22.117" r="1.875" class="secondary" style="fill: rgb(255, 222, 0);"></circle><path d="M8.5 23.055h3.75v1.875H8.5z" class="secondary" style="fill: rgb(255, 222, 0);"></path><path d="M31 4.307h-1.875l-.647 2.588-8.728 9.6h-15a1.88 1.88 0 0 0-1.875 1.875v3.75c0 .562.375.938.938.938s.937-.376.937-.938v-3.75h9.375L8.5 20.245v2.812l6.562.938v.938h13.125L31 22.12v-2.812l-3.525-.881zm-3.169 5.166-1.181 4.716-4.453 1.491zm-4.875 7.828 3.188-1.069-.441 1.753z" class="primary" style="fill: rgb(54, 124, 43);"></path><path d="m22.938 17.336 3.206-1.103.506-2.044-6.9 2.303-11.25 3.75v.938h6.562v3.75h1.876v-3.75l1.874-2.813L31 19.305z" class="shadow" style="opacity: 0.3; fill: rgb(51, 51, 51);"></path><path d="m16.938 21.18.656-.938h4.969c5.531 0 6.562.938 6.562.938z" class="secondary" style="fill: rgb(255, 222, 0);"></path></svg>