<svg version="1.1" id="Layer_1" xmlns="http://www.w3.org/2000/svg" xmlns:xlink="http://www.w3.org/1999/xlink" x="0px" y="0px"
	 width="100px" height="100px" viewBox="0 0 100 100" enable-background="new 0 0 100 100" xml:space="preserve">
<path fill="#03334D" d="M51.344,18.792l-3.807-5.625c0,0-0.275-0.381-0.134-0.674c0.143-0.293,0.909-0.184,0.909-0.184L72.746,13.6
	c0,0,0.617-0.066,0.703,0.173c0.087,0.24-0.139,0.625-0.139,0.625L64.92,33.438c0,0-0.07,0.298-0.273,0.348
	c-0.203,0.05-0.444-0.255-0.444-0.255l-5.997-6.466c0,0-19.774,8.878-25.827,12.61c-6.053,3.732-14.129,9.36-18.159,13.316
	c-2.775,2.724-3.77,4.285-5.083,6.286c-1.122,1.709-1.803,4.029-1.877,5.619c-0.163,3.467,0.399,6.508,2.465,9.091
	c2.521,3.153,7.624,6.848,7.624,6.848s-5.303-1.568-9.099-5.392c-2.629-2.647-3.94-5.465-4.521-7.823
	c-0.58-2.358-0.751-4.884,0-7.466c1.16-3.986,3.13-7.012,8.676-13.216c4.047-4.527,8.589-8.337,13.115-11.702
	c5.105-3.796,8.111-5.923,13.316-9.219C44.727,22.287,51.344,18.792,51.344,18.792z"/>
<path fill="#F79021" d="M48.654,81.747l3.809,5.625c0,0,0.275,0.381,0.133,0.674c-0.141,0.293-0.907,0.184-0.907,0.184
	l-24.435-1.291c0,0-0.617,0.066-0.705-0.173c-0.087-0.239,0.14-0.624,0.14-0.624l8.39-19.041c0,0,0.07-0.297,0.273-0.348
	c0.204-0.05,0.445,0.256,0.445,0.256l5.997,6.465c0,0,19.773-8.877,25.827-12.609c6.053-3.732,14.129-9.361,18.159-13.316
	c2.774-2.724,3.77-4.285,5.083-6.287c1.121-1.708,1.802-4.029,1.877-5.619c0.163-3.467-0.397-6.508-2.463-9.091
	c-2.523-3.152-7.625-6.848-7.625-6.848s5.304,1.569,9.1,5.391c2.629,2.648,3.939,5.466,4.521,7.824c0.579,2.358,0.751,4.883,0,7.466
	c-1.16,3.985-3.13,7.012-8.677,13.215c-4.048,4.528-8.589,8.338-13.115,11.704c-5.104,3.796-8.11,5.922-13.315,9.218
	C55.273,78.252,48.654,81.747,48.654,81.747z"/>
</svg>
