<svg data-icon-name="ImplementPotatoPlanter" xmlns="http://www.w3.org/2000/svg" xml:space="preserve" id="implement-potato-planter__main_shape" x="0" y="0" version="1.0" viewBox="0 0 32 32" class="implement-potato-planter" style="background-image: none; background-position: 0% 0%; display: inline; fill: rgb(51, 51, 51); height: 65px; width: 65px;"><path d="M16 28.312a6.6 6.6 0 0 1-6.331-4.688H6.625a1 1 0 0 1-1-1v-7.01l-.043.066a1 1 0 0 1-.832.445H2.875c-.334 0-.646-.167-.832-.445L.168 12.868A1 1 0 0 1 0 12.312V6.688a1 1 0 0 1 1-1h5.625a1 1 0 0 1 1 1v5.211l.352.352h1.859L8.73 11.145a1 1 0 0 1-.293-.707v-3.75a1 1 0 0 1 1-1H27.25a1 1 0 0 1 1 1v7.5c0 .245-.09.481-.253.664l-3.521 3.961H31a1 1 0 0 1 1 1v2.812a1 1 0 0 1-1 1h-8.668A6.6 6.6 0 0 1 16 28.312m-7.102-9.5-.336-.336v.336z" class="outline" style="fill: rgb(255, 255, 255);"></path><path d="m12.25 13.25-2.812-2.812v-3.75h2.812z" class="primary" style="fill: rgb(54, 124, 43);"></path><path d="m12.25 13.25-2.812-2.812v-3.75h2.812z" class="shadow" style="opacity: 0.3; fill: rgb(51, 51, 51);"></path><path d="m27.25 14.188-7.5 8.437-8.438-8.437V7.625H27.25z" class="primary" style="fill: rgb(54, 124, 43);"></path><path d="M27.25 14.188H11.312l8.438 8.437z" class="shadow" style="opacity: 0.3; fill: rgb(51, 51, 51);"></path><path d="M6.625 13.25h.938v7.5h-.938z" class="primary" style="fill: rgb(54, 124, 43);"></path><path d="M6.625 13.25h6.562v.938H6.625z" class="primary" style="fill: rgb(54, 124, 43);"></path><path d="m13.188 21.688-9.376-9.376h2.813L16 21.688z" class="primary" style="fill: rgb(54, 124, 43);"></path><path d="m13.188 21.688-9.376-9.376h2.813L16 21.688z" class="shadow" style="opacity: 0.3; fill: rgb(51, 51, 51);"></path><path d="M6.625 19.812H31v2.812H6.625z" class="primary" style="fill: rgb(54, 124, 43);"></path><path d="M6.625 21.688H31v.938H6.625z" class="shadow" style="opacity: 0.3; fill: rgb(51, 51, 51);"></path><circle cx="16" cy="21.688" r="5.625" class="quaternary" style="fill: rgb(51, 51, 51);"></circle><circle cx="16" cy="21.688" r="3.75" class="secondary" style="fill: rgb(255, 222, 0);"></circle><circle cx="16" cy="21.688" r=".938" class="shadow" style="opacity: 0.3; fill: rgb(51, 51, 51);"></circle><path d="M4.75 15.125H2.875L1 12.312V6.688h5.625v5.624z" class="secondary" style="fill: rgb(255, 222, 0);"></path><path d="M6.625 12.312 4.75 15.125H2.875L1 12.312z" class="shadow" style="opacity: 0.3; fill: rgb(51, 51, 51);"></path><path d="M9.438 6.688H27.25v.938H9.438zM1 6.688h5.625v.938H1z" class="quaternary" style="fill: rgb(51, 51, 51);"></path></svg>