<svg data-icon-name="Tillage" xmlns="http://www.w3.org/2000/svg" xml:space="preserve" id="tillage__main_shape" x="0" y="0" version="1.1" viewBox="0 0 32 32" class="tillage" style="background-image: none; background-position: 0% 0%; display: inline; fill: rgb(51, 51, 51); height: 32px; width: 32px;"><path d="M19.3 27.3c-1.7 0-3.3-.9-4.3-2.3q-1.05-.3-1.8-.9c.1.3 0 .6-.1.8-.2.3-.5.5-.8.5-5.7 0-6.6-3.5-6.6-5.6-.6.6-1.4.9-2.3.9-1.8 0-3.3-1.5-3.3-3.3v-.3C0 17 0 17 0 16.9v-2.8q0-.6.6-.9l5.6-2.8c.1-.1.3-.1.4-.1.3 0 .5.1.7.3l2.5 2.5h3l15.8-8.3c.1-.1.3-.1.5-.1s.4 0 .5.1c.3.2.5.5.5.9v7.4h.9c.6 0 1 .4 1 1v3.3c0 1.8-1.5 3.3-3.3 3.3-.4 0-.8-.1-1.2-.2.1.2.2.3.3.5.4.4 1.1.6 1.4.6s.5.1.7.3l1.8 1.9c.3.3.4.7.2 1.1q-.3.6-.9.6c-1.4 0-4.9 0-6.6-2.3-.5 2.3-2.6 4.1-5.1 4.1m-8.9-9.4c-.4.5-.8 1.1-.8 1.9 0 .5.1.9.4 1.2.4.4 1.1.6 1.4.6h.1c-.1-.5-.2-1.2-.2-1.8s.1-1.2.4-1.8h-1.3zm12 0c.4.3.8.7 1.1 1.1.1-.4.2-.7.3-1.1zm-6.5.2c.1-.1.2-.1.2-.2H16c0 .1-.1.2-.1.2m10.3-5v-1.9l-3.6 1.9z" class="outline" style="fill: rgb(255, 255, 255);"></path><path d="M27.2 7.6h1.9v7.5h-1.9z" class="primary" style="fill: rgb(54, 124, 43);"></path><path d="M27.2 7.6h1.9v4.7h-1.9z" class="shadow" style="opacity: 0.3; fill: rgb(51, 51, 51);"></path><path d="M31 24.4c-4.7 0-6.6-1.6-6.6-4.7 0-2.3 2.6-3.8 2.6-3.8h1.9s-2.4 1.5-2.5 3.8 1.9 2.8 2.8 2.8zM12.2 24.4c-3.8 0-5.6-1.6-5.6-4.7 0-2.3 2.6-3.8 2.6-3.8h1.9s-2.4 1.5-2.5 3.8c-.1 2.2 1.9 2.8 2.8 2.8zM17.9 24.4c-3.8 0-5.6-1.6-5.6-4.7 0-2.3 2.6-3.8 2.6-3.8h1.9s-2.4 1.5-2.5 3.8 1.9 2.8 2.8 2.8z" class="tertiary" style="fill: rgb(128, 128, 128);"></path><path d="M1 14.1h30v2.8H1z" class="primary" style="fill: rgb(54, 124, 43);"></path><path d="M1 16h30v.9H1z" class="shadow" style="opacity: 0.3; fill: rgb(51, 51, 51);"></path><circle cx="19.3" cy="22.1" r="4.2" class="quaternary" style="fill: rgb(51, 51, 51);"></circle><circle cx="19.3" cy="22.1" r="1.4" class="secondary" style="fill: rgb(255, 222, 0);"></circle><path d="m29.1 5.7-17.8 9.4h5.6l12.2-6.6z" class="primary" style="fill: rgb(54, 124, 43);"></path><circle cx="3.3" cy="17.4" r="2.3" class="quaternary" style="fill: rgb(51, 51, 51);"></circle><circle cx="3.3" cy="17.4" r=".5" class="tertiary" style="fill: rgb(128, 128, 128);"></circle><circle cx="28.7" cy="17.4" r="2.3" class="quaternary" style="fill: rgb(51, 51, 51);"></circle><circle cx="28.7" cy="17.4" r=".5" class="tertiary" style="fill: rgb(128, 128, 128);"></circle><path d="m1 14.1 5.6-2.8 4.7 4.7z" class="primary" style="fill: rgb(54, 124, 43);"></path></svg>