<svg data-icon-name="GenericSemi1" xmlns="http://www.w3.org/2000/svg" xml:space="preserve" version="1.0" viewBox="0 0 32 32" class="generic-semi-1" style="background-image: none; background-position: 0% 0%; display: inline; fill: rgb(51, 51, 51); height: 65px; width: 65px;"><path id="generic-semi-1__outline" d="M27.2 26c-1.5 0-2.9-1-3.4-2.3h-.3c-.2 0-.4-.1-.6-.2-.2.2-.4.3-.7.3h-8.8c-.6 1.3-1.8 2.2-3.3 2.2-1.1 0-2-.5-2.7-1.2-.6.8-1.6 1.2-2.6 1.2-2 0-3.6-1.6-3.6-3.6V22H1c-.5 0-1-.5-1-1v-1.4c0-.6.4-1 1-1h1c.8-.5 1.8-.8 2.8-.8h.4c.2-.2.5-.3.8-.3h4c.3 0 .6.1.8.4.3 0 .6.1.9.2v-6.7c0-.3.1-.6.4-.8l.4-1.2-.7-.4c-.6-.4-.8-.7-.8-1.1V7c0-.4.2-.7.5-.9.2-.1.4-.1.5-.1.2 0 .4 0 .5.1l2.2 1.3c.3.2.4.4.5.7.1 0 .2 0 .3.1 1 .5 3.4 1 6.4 1.4q.3 0 .6.3l.2.2c.3 0 .5.2.7.4l.4.5c.1.1.1.2.1.3l.7 2.1h5.9c.3 0 .6.1.8.3.3.2.5.5.5.9V18c.1.2.2.4.2.7v4.1c0 .6-.5 1.2-1.2 1.2h-.3c-.6 1.1-1.8 2-3.3 2" class="outline" style="fill: rgb(255, 255, 255);"></path><g id="generic-semi-1__Semi_Truck_1"><path d="m23.1 14.5-.8-2.8h.7l-.4-.5h-.3l-.5-.5c-2.2-.3-5.3-.8-6.7-1.5h-1.8l-.6 2h-.2v8.4h18v-5h-7.4zm-2.3.4-.2-.6h-2v-2.6h3.3l.4 3.2z" class="primary" style="fill: rgb(54, 124, 43);"></path><path d="M21.9 10.6c-2.2-.3-5.3-.8-6.7-1.5h-1.8l-.6 2h9.6z" class="highlight" style="opacity: 0.3; fill: rgb(255, 255, 255);"></path><path d="M30.5 14.7h.3v3.5h-.3z" class="tertiary" style="fill: rgb(2, 3, 3);"></path><path d="M1 19.5h29.5v2.9H9.7v-1.1L1 21z" class="primary" style="fill: rgb(54, 124, 43);"></path><path d="M1 19.5h26.2v1.6H1z" class="shadow" style="opacity: 0.3; fill: rgb(51, 51, 51);"></path><circle cx="27.2" cy="22.4" r="2.6" class="tertiary" style="fill: rgb(2, 3, 3);"></circle><circle cx="27.2" cy="22.4" r="1.6" class="secondary" style="fill: rgb(255, 222, 0);"></circle><circle cx="27.2" cy="22.4" r=".5" class="shadow" style="opacity: 0.3; fill: rgb(51, 51, 51);"></circle><circle cx="4.8" cy="22.4" r="2.6" class="tertiary" style="fill: rgb(2, 3, 3);"></circle><circle cx="4.8" cy="22.4" r="1.6" class="secondary" style="fill: rgb(255, 222, 0);"></circle><circle cx="4.8" cy="22.4" r=".5" class="shadow" style="opacity: 0.3; fill: rgb(51, 51, 51);"></circle><circle cx="10.1" cy="22.4" r="2.6" class="tertiary" style="fill: rgb(2, 3, 3);"></circle><circle cx="10.1" cy="22.4" r="1.6" class="secondary" style="fill: rgb(255, 222, 0);"></circle><circle cx="10.1" cy="22.4" r=".5" class="shadow" style="opacity: 0.3; fill: rgb(51, 51, 51);"></circle><path d="M9.9 18.9v-.5h-4v.5h-.8v.6h5.6v-.6z" class="secondary" style="fill: rgb(255, 222, 0);"></path><path d="M5.1 18.9h5.6v.6H5.1z" class="shadow" style="opacity: 0.3; fill: rgb(51, 51, 51);"></path><path d="M14.3 10.6V8.3L12 7v.9l1.6.9v1.8h-.5v8.8h1.6v-8.8z" class="secondary" style="fill: rgb(255, 222, 0);"></path><path d="M13.3 10.9h.4v8.4h-.4z" class="highlight" style="opacity: 0.3; fill: rgb(255, 255, 255);"></path><path d="m21.8 11.7.4 3.2h-1.4l-.2-.6h-2v-2.6zM23 11.7l.9 2.8h-.8l-.9-2.8z" class="window" style="opacity: 0.3; fill: rgb(126, 126, 126);"></path><path d="M22.8 14.8h1.7v3.3h-1.7z" class="secondary" style="fill: rgb(255, 222, 0);"></path><path d="M23 15h.4v2.9H23z" class="highlight" style="opacity: 0.3; fill: rgb(255, 255, 255);"></path><path d="M13.1 20h9.2v2.9h-9.2z" class="secondary" style="fill: rgb(255, 222, 0);"></path><path d="M21.309 20.334v.6h-7.7v-.6z" class="highlight" style="opacity: 0.3; fill: rgb(255, 255, 255);"></path><path d="M27.7 18.5c-2.3 0-4.2 1.8-4.2 4.2h.6c0-.9.3-1.7.8-2.3 1.7-2 5-1.1 5.3 1.5v.8c0 .1.1.2.2.2h.4c.1 0 .2-.1.2-.2v-4.1c0-.1-.1-.2-.2-.2h-3.1z" class="secondary" style="fill: rgb(255, 222, 0);"></path><path d="m2.3 19.5.4.4c1.2-.8 2.7-.8 3.9-.1l.4-.4c-1.4-1-3.3-.9-4.7.1M7.8 19.5l.4.4c1.2-.8 2.7-.8 3.9-.1l.4-.4c-1.4-1-3.3-.9-4.7.1" class="tertiary" style="fill: rgb(2, 3, 3);"></path></g></svg>