<svg data-icon-name="SkidSteer" xmlns="http://www.w3.org/2000/svg" xml:space="preserve" id="skid-steer__main_shape" x="0" y="0" version="1.0" viewBox="0 0 32 32" class="skid-steer" style="background-image: none; background-position: 0% 0%; display: inline; fill: rgb(51, 51, 51); height: 65px; width: 65px;"><path d="M22.545 27.28a.998.998 0 0 1-.97-1.243l.215-.86-.382-.7h-1.093c-.752 1.684-2.429 2.804-4.312 2.804s-3.56-1.12-4.312-2.804h-.721a4.73 4.73 0 0 1-4.312 2.804 4.745 4.745 0 0 1-4.695-4.099l-1.359-.68a1 1 0 0 1-.553-.895V10.393a1.003 1.003 0 0 1 .999-1q.05 0 .1.005l.38.038.409-2.043c.473-1.741 1.731-1.741 2.407-1.741l2.249.002a1 1 0 0 1 .997-.934h11.214a1 1 0 0 1 .707 1.707l-.546.546.957 4.306a1 1 0 0 1 .745.611l2.733 6.833.041-.162a.999.999 0 0 1 1.717-.422l6.636 7.476a1.002 1.002 0 0 1-.748 1.664h-8.503zm-6.338-16.377-.211-1.055-1.462-2.194h-2.203v2.861zm-9.615-.961V8.589h-.804v1.272z" class="outline" style="fill: rgb(255, 255, 255);"></path><path d="m17.872 6.654.935-.935H9.461v9.346h10.28zm-6.542 7.477V6.654h3.738l1.869 2.804.935 4.673z" class="tertiary" style="fill: rgb(51, 51, 51);"></path><path d="M19.274 14.131h-8.878V5.72H7.592v8.411H1.05v7.476l3.738 1.87h19.626z" class="primary" style="fill: rgb(54, 124, 43);"></path><path d="M9.461 7.589H5.723c-.935 0-.935.654-.935.935v3.738H1.985l.935-4.673c.28-1.028.84-.935 1.868-.935h4.673z" class="tertiary" style="fill: rgb(51, 51, 51);"></path><path d="M19.742 12.262 1.05 10.393v7.477h1.869l1.869-1.963c.841-.748 1.682-.935 2.804-.935l10.28.935 5.607 10.28 1.121-1.776z" class="secondary" style="fill: rgb(255, 222, 0);"></path><path d="M19.742 12.262 1.05 10.393v7.476h1.869l15.514-.934 5.047 9.345 1.215-1.775z" class="shadow" style="opacity: 0.3; fill: rgb(51, 51, 51);"></path><path d="M17.872 16h2.804l-2.243.935z" class="tertiary" style="fill: rgb(51, 51, 51);"></path><circle cx="3.386" cy="13.664" r="1.402" class="tertiary" style="fill: rgb(51, 51, 51);"></circle><circle cx="16.003" cy="22.542" r="3.738" class="tertiary" style="fill: rgb(51, 51, 51);"></circle><circle cx="16.003" cy="22.542" r="1.869" class="primary" style="fill: rgb(54, 124, 43);"></circle><circle cx="6.657" cy="22.542" r="3.738" class="tertiary" style="fill: rgb(51, 51, 51);"></circle><circle cx="6.657" cy="22.542" r="1.869" class="primary" style="fill: rgb(54, 124, 43);"></circle><path d="M31.05 26.28h-8.505l1.869-7.476z" class="tertiary" style="fill: rgb(51, 51, 51);"></path></svg>