<svg data-icon-name="CompactTrackLoader" xmlns="http://www.w3.org/2000/svg" xml:space="preserve" id="compact-track-loader__main_shape" x="0" y="0" version="1.0" viewBox="0 0 32 32" class="compact-track-loader" style="background-image: none; background-position: 0% 0%; display: inline; fill: rgb(51, 51, 51); height: 65px; width: 65px;"><path d="M22.495 27.28a.998.998 0 0 1-.97-1.242l.039-.156c-.209.34-.489.638-.83.878a2.85 2.85 0 0 1-1.646.521H4.353a3.62 3.62 0 0 1-2.231-.774 3.2 3.2 0 0 1-.974-3.706l-.596-.298A1 1 0 0 1 0 21.607V10.393a1.003 1.003 0 0 1 1.1-.995l.38.038.409-2.043c.472-1.741 1.73-1.741 2.407-1.741l2.249.002a1 1 0 0 1 .997-.934h11.215a1 1 0 0 1 .707 1.707l-.546.546.957 4.306a1 1 0 0 1 .745.611l2.733 6.834.041-.163a.999.999 0 0 1 1.717-.421l6.636 7.477c.261.295.325.715.164 1.074s-.517.589-.911.589zm-6.338-16.377-.211-1.055-1.462-2.194H12.28v2.861zm-9.615-.961V8.589h-.804v1.273z" class="outline" style="fill: rgb(255, 255, 255);"></path><path d="m17.822 6.654.935-.935H9.411v9.346h10.28zm-6.542 7.477V6.654h3.738l1.869 2.804.935 4.673z" class="tertiary" style="fill: rgb(51, 51, 51);"></path><path d="M19.224 14.131h-8.878V5.72H7.542v8.411H1v7.476l3.738 1.87h19.626z" class="primary" style="fill: rgb(54, 124, 43);"></path><path d="M9.411 7.589H5.673c-.935 0-.935.654-.935.935v3.738H1.935l.935-4.673c.28-1.028.84-.935 1.868-.935h4.673z" class="tertiary" style="fill: rgb(51, 51, 51);"></path><path d="M19.692 12.262 1 10.393v7.477h1.869l1.869-1.963c.841-.748 1.682-.935 2.804-.935l10.28.935 5.607 10.28 1.121-1.776z" class="secondary" style="fill: rgb(255, 222, 0);"></path><path d="M19.692 12.262 1 10.393v7.476h1.869l15.514-.934 5.047 9.345 1.215-1.775z" class="shadow" style="opacity: 0.3; fill: rgb(51, 51, 51);"></path><path d="M17.822 16h2.804l-2.243.935z" class="tertiary" style="fill: rgb(51, 51, 51);"></path><circle cx="3.336" cy="13.664" r="1.402" class="tertiary" style="fill: rgb(51, 51, 51);"></circle><path d="M31 26.28h-8.505l1.869-7.476z" class="tertiary" style="fill: rgb(51, 51, 51);"></path><path d="M4.493 19.511 2.285 22.79a2.18 2.18 0 0 0 .456 2.93c.459.363 1.026.56 1.611.56h14.736c.383 0 .757-.119 1.07-.338 1.307-.92 1.044-2.928-.455-3.48L8.331 18.271a3.27 3.27 0 0 0-3.838 1.24" class="secondary" style="fill: rgb(255, 222, 0);"></path><path d="M7.203 19.464q.331 0 .644.115l11.372 4.19a.56.56 0 0 1 .375.469.56.56 0 0 1-.241.55.46.46 0 0 1-.264.083H4.352c-.268 0-.532-.092-.742-.258a.783.783 0 0 1-.164-1.047l2.208-3.279a1.87 1.87 0 0 1 1.549-.823m0-1.401a3.27 3.27 0 0 0-2.709 1.441l-2.208 3.279a2.18 2.18 0 0 0 .456 2.93c.459.363 1.026.56 1.611.56h14.736c.383 0 .757-.119 1.07-.338 1.307-.92 1.044-2.928-.455-3.48l-11.372-4.19a3.3 3.3 0 0 0-1.129-.202" class="tertiary" style="fill: rgb(51, 51, 51);"></path></svg>