<svg data-icon-name="CombineHeaderBean" xmlns="http://www.w3.org/2000/svg" xml:space="preserve" version="1.0" viewBox="0 0 32 32" class="combine-header-bean" style="background-image: none; background-position: 0% 0%; display: inline; fill: rgb(51, 51, 51); height: 65px; width: 65px;"><path id="combine-header-bean__outline" d="M6.616 27.04c-1.83 0-3.108-1.351-3.108-3.283v-1.751l-1.806-.245A1.98 1.98 0 0 1 0 19.81v-7.893c0-2.28 1.851-4.066 4.213-4.066.792 0 1.573.213 2.259.615l.983.625 2.451-4.289a1.97 1.97 0 0 1 1.709-.992h7.893c.704 0 1.358.379 1.709.991l3.508 6.14a1.97 1.97 0 0 1 0 1.953l-.542.947q.166.122.305.278l7.015 7.892c.578.647.664 1.583.214 2.326a1.98 1.98 0 0 1-2.175.886l-6.659-1.664a1.96 1.96 0 0 1-1.885.833l-1.068-.146-.414.828c-.727 1.451-2.348 1.966-3.516 1.966z" class="outline" style="fill: rgb(255, 255, 255);"></path><g id="combine-header-bean__main_shape"><path d="M23.5 15.425H16v4.688l10.882 2.674 4.004.984z" class="primary" style="fill: rgb(54, 124, 43);"></path><path d="M27.25 19.644 31 23.862l-3.75-.937z" class="secondary" style="fill: rgb(255, 222, 0);"></path><path d="M16 25.737H5.969c-.75 0-1.219-.469-1.219-1.406v-5.156l15 1.875-1.875 3.75c-.469.937-1.875.937-1.875.937" class="primary" style="fill: rgb(54, 124, 43);"></path><path d="M16 25.737H5.969c-.75 0-1.219-.469-1.219-1.406v-5.156l14.062 1.875-.938 2.812z" class="shadow" style="opacity: 0.3; fill: rgb(51, 51, 51);"></path><path d="m11.312 18.237-3.75-6.562 3.75-6.563h8.438l3.75 6.563-3.75 6.562z" class="quaternary" style="fill: rgb(51, 51, 51);"></path><path d="M17.312 12.425c-.562-.469-.562-1.125 0-1.594L19 9.519c.563-.469 1.219-.281 1.406.375 0 0 .188.562.188 1.688s-.188 1.688-.188 1.688c-.188.656-.844.844-1.406.375zM13.75 12.425c.563-.469.563-1.125 0-1.594l-1.688-1.312c-.562-.469-1.218-.282-1.406.375 0 0-.188.562-.188 1.688s.188 1.688.188 1.688c.188.656.844.844 1.406.375zM14.781 13.456c.469-.562 1.125-.562 1.594 0l1.312 1.688c.469.562.281 1.219-.375 1.406 0 0-.562.188-1.688.188s-1.688-.188-1.688-.188c-.656-.188-.844-.844-.375-1.406zM14.781 9.894c.469.562 1.125.562 1.594 0l1.312-1.688c.375-.656.188-1.219-.469-1.5 0 0-.563-.188-1.688-.188s-1.688.188-1.688.188c-.654.281-.842.844-.467 1.406z" class="highlight" style="opacity: 0.3; fill: rgb(255, 255, 255);"></path><path d="M21.319 22.691 1 20.112v-8.438C1 9.8 3.156 8.862 4.75 9.8l10.312 6.562z" class="primary" style="fill: rgb(54, 124, 43);"></path><path d="M13.188 15.425h-1.876l-1.874 4.687h1.874z" class="shadow" style="opacity: 0.3; fill: rgb(51, 51, 51);"></path><circle cx="4.281" cy="13.081" r="1.406" class="secondary" style="fill: rgb(255, 222, 0);"></circle><path d="m19 22.55-1.125 2.25c-.469.937-1.875.937-1.875.937h-5.625V24.8h6.562v-4.688z" class="secondary" style="fill: rgb(255, 222, 0);"></path><path d="M16.938 22.269v-4.032l4.687 4.688z" class="secondary" style="fill: rgb(255, 222, 0);"></path></g></svg>