<svg data-icon-name="NutrientApplicationSpinnerSpreader" xmlns="http://www.w3.org/2000/svg" xml:space="preserve" id="nutrient-application-spinner-spreader__outline" x="0" y="0" version="1.1" viewBox="0 0 32 32" class="nutrient-application-spinner-spreader" style="background-image: none; background-position: 0% 0%; display: inline; fill: rgb(51, 51, 51); height: 65px; width: 65px;"><path d="M25.4 27.3c-2.3 0-4.2-1.6-4.6-3.8h-1c-.6 0-1-.4-1-1v-.1c-.3.1-.6.2-.9.2h-2.8c0 .2-.1.5-.3.6l-.9.9c-.2.2-.4.3-.7.3-.1 0-.3 0-.4-.1-.1 0-.2-.1-.2-.1-1 1.8-2.8 3-5 3-2.5 0-4.6-1.6-5.4-3.9l-.3.5c-.2.3-.5.6-.9.6H.8c-.5 0-.8-.4-.8-.9v-9.4c0-.6.4-1 1-1h.2L.1 9.8C0 9.7 0 9.5 0 9.4v-.9c0-1.2.8-2.9 2.9-2.9h10.3c0-.5.5-.9 1-.9h8.4c.4 0 .8.2.9.6.2.4.1.8-.2 1.1l-.7.6v.5c.4-1.4 1.8-2 2.8-2 .3 0 .7.2.9.5s.2.7 0 1l-.8 1.7v.9c4.8.7 6.2 2.7 6.4 3 .1.2.2.5.2.7L31 19c-.1.4-.3.7-.7.8l-1 .3c.5.7.7 1.6.7 2.5.1 2.6-2 4.7-4.6 4.7" class="outline" style="fill: rgb(255, 255, 255);"></path><path d="M15.1 7.6h5.6v6.6h-5.6z" class="quinary" style="fill: rgb(255, 255, 255);"></path><path d="M1 14.1v6.6h25.3l1.9-1.9 1.9-4.7z" class="primary" style="fill: rgb(54, 124, 43);"></path><path d="M1 14.1v6.6h25.3l1.9-1.9 1.9-4.7z" class="shadow" style="opacity: 0.3; fill: rgb(51, 51, 51);"></path><path d="M17.9 21.6h-4.7v-4.7h4.7c.6 0 .9.4.9.9v2.8c0 .6-.4 1-.9 1" class="quaternary" style="fill: rgb(51, 51, 51);"></path><path d="m14.1 22.6-.9.9v-5.6h.9z" class="quaternary" style="fill: rgb(51, 51, 51);"></path><path d="m19.3 9.6-.5-.3-1.1 1.9.5.3z" class="tertiary" style="fill: rgb(128, 128, 128);"></path><path d="M21.6 10.4v3.7h-.9l-2.3-3.7z" class="tertiary" style="fill: rgb(128, 128, 128);"></path><path d="M15.1 7.6h5.6v6.6h-5.6z" class="window" style="opacity: 0.3; fill: rgb(93, 201, 232);"></path><path d="M22.6 5.7h-8.5v.9h7.5z" class="primary" style="fill: rgb(54, 124, 43);"></path><path d="M14.1 6.6h.9v7.5h-.9z" class="quaternary" style="fill: rgb(51, 51, 51);"></path><path d="M14.1 6.6h7.5v.9h-7.5z" class="quaternary" style="fill: rgb(51, 51, 51);"></path><path d="M20.7 6.6h.9V15h-.9z" class="quaternary" style="fill: rgb(51, 51, 51);"></path><path d="m30.1 18.8-2.8.9v-1.9c0-2.8-2.8-2.8-5.6-2.8v-4.7c7.5 0 9.4 2.8 9.4 2.8z" class="primary" style="fill: rgb(54, 124, 43);"></path><path d="m31 13.2-.9 5.6s0-3.8-2.8-4.7c-.6-.9-.9-1.9-.9-1.9l3.8.9h.8zM20.7 22.6h-.9c0-3.1 2.5-5.6 5.6-5.6v.9c-2.6 0-4.7 2-4.7 4.7" class="quaternary" style="fill: rgb(51, 51, 51);"></path><path d="M1 14.1h13.1V16H1z" class="primary" style="fill: rgb(54, 124, 43);"></path><path d="M1 16h13.1v.9H1z" class="shadow" style="opacity: 0.3; fill: rgb(51, 51, 51);"></path><path d="M14.1 14.1h6.6v.9h-6.6z" class="primary" style="fill: rgb(54, 124, 43);"></path><path d="M18.8 15.1h-4.7v-3.8H16zM13.2 15.1H2.9L1 9.4v-.9h12.2z" class="primary" style="fill: rgb(54, 124, 43);"></path><path d="M13.2 8.5H1s0-1.9 1.9-1.9h10.3z" class="tertiary" style="fill: rgb(128, 128, 128);"></path><path d="M2.9 13.2h10.3v.9H2.9z" class="shadow" style="opacity: 0.3; fill: rgb(51, 51, 51);"></path><path d="M1 8.5h12.2v.9H1z" class="highlight" style="opacity: 0.3; fill: rgb(255, 255, 255);"></path><path d="M21.6 12.2c5.7 0 8.4.9 8.4.9s-2.7-1.9-8.4-1.9z" class="secondary" style="fill: rgb(255, 222, 0);"></path><path d="M1.9 21.6 1 23.5V16h.9z" class="quaternary" style="fill: rgb(51, 51, 51);"></path><path d="M1.9 15.1h9.4c1.9 0 1.9.5 1.9.5H1.9z" class="secondary" style="fill: rgb(255, 222, 0);"></path><path d="M25.4 6.6s-1.9 0-1.9 1.9v4.7h.9V8.5z" class="quaternary" style="fill: rgb(51, 51, 51);"></path><path d="M24.4 11.3h-1.9v1.9c0 .6.4.9.9.9s.9-.4.9-.9v-1.9z" class="quaternary" style="fill: rgb(51, 51, 51);"></path><circle cx="25.4" cy="22.6" r="3.8" class="quaternary" style="fill: rgb(51, 51, 51);"></circle><circle cx="25.4" cy="22.6" r="1.9" class="secondary" style="fill: rgb(255, 222, 0);"></circle><circle cx="25.4" cy="22.6" r=".9" class="shadow" style="opacity: 0.3; fill: rgb(51, 51, 51);"></circle><circle cx="7.6" cy="21.6" r="4.7" class="quaternary" style="fill: rgb(51, 51, 51);"></circle><circle cx="7.6" cy="21.6" r="2.3" class="secondary" style="fill: rgb(255, 222, 0);"></circle><circle cx="7.6" cy="21.6" r="1.4" class="shadow" style="opacity: 0.3; fill: rgb(51, 51, 51);"></circle></svg>