<svg data-icon-name="NutrientApplicationSpreader" xmlns="http://www.w3.org/2000/svg" xml:space="preserve" id="nutrient-application-spreader__main_shape" x="0" y="0" version="1.0" viewBox="0 0 32 32" class="nutrient-application-spreader" style="background-image: none; background-position: 0% 0%; display: inline; fill: rgb(51, 51, 51); height: 65px; width: 65px;"><path d="M23.5 27.812a5.7 5.7 0 0 1-5.6-4.688h-.963a1 1 0 0 1-1-1q0-.927.218-1.812h-3.208c.2.581.303 1.19.303 1.812a5.694 5.694 0 0 1-5.688 5.688 5.7 5.7 0 0 1-5.6-4.688H.999a1 1 0 0 1-1-1q0-1.08.295-2.103A1 1 0 0 1 0 19.312v-3.75a1 1 0 0 1 1-1h.42L.024 8.279A1 1 0 0 1 0 8.062v-.937a1 1 0 0 1 1-1h13.125c.376 0 .705.208.875.516v-.453a1 1 0 0 1 1-1h7.5a1 1 0 0 1 .997 1.072 3 3 0 0 1 .878-.134.998.998 0 0 1 .895 1.447l-.832 1.664v.802c5.432.639 6.411 3.04 6.509 3.326a1 1 0 0 1 .04.487l-.938 5.625a1 1 0 0 1-.986.836h-1.178c.2.581.303 1.19.303 1.812a5.694 5.694 0 0 1-5.688 5.687" class="outline" style="fill: rgb(255, 255, 255);"></path><path d="M16.938 8.062h4.688v7.5h-4.688z" class="quinary" style="fill: rgb(255, 255, 255);"></path><path d="m20.219 10.125-.469-.281-1.125 1.875.469.281z" class="tertiary" style="fill: rgb(128, 128, 128);"></path><path d="M22.562 10.875v3.75h-.937l-2.156-3.75z" class="tertiary" style="fill: rgb(128, 128, 128);"></path><path d="M16.938 8.062h4.688v7.5h-4.688z" class="window" style="opacity: 0.3; fill: rgb(93, 201, 232);"></path><path d="M1 15.562h27.188v3.75H1z" class="primary" style="fill: rgb(54, 124, 43);"></path><path d="M1 15.562h27.188v3.75H1z" class="shadow" style="opacity: 0.3; fill: rgb(51, 51, 51);"></path><path d="M23.5 6.188H16v.937h6.562z" class="primary" style="fill: rgb(54, 124, 43);"></path><path d="M22.562 7.125v8.437h-.937v-7.5h-4.687v6.563H16v-7.5z" class="quaternary" style="fill: rgb(51, 51, 51);"></path><path d="M30.062 19.312H27.25v-.938c0-2.812-1.875-2.812-4.688-2.812v-4.688c7.5 0 8.438 2.812 8.438 2.812z" class="primary" style="fill: rgb(54, 124, 43);"></path><path d="m31 13.688-.938 5.625s0-3.75-2.812-4.688c-.562-.938-.938-1.875-.938-1.875l3.75.938z" class="quaternary" style="fill: rgb(51, 51, 51);"></path><path d="M20.688 15.562H16v-3.75h1.875zM14.125 16.5H2.875L1 8.062v-.937h13.125z" class="primary" style="fill: rgb(54, 124, 43);"></path><path d="M1 7.125h13.125v.938H1z" class="highlight" style="opacity: 0.3; fill: rgb(255, 255, 255);"></path><path d="M14.125 9H1.188L1 8.062h13.125z" class="secondary" style="fill: rgb(255, 222, 0);"></path><path d="m13.188 14.625-.938-2.813h-7.5v2.813l-.938-3.75h9.376z" class="shadow" style="opacity: 0.3; fill: rgb(51, 51, 51);"></path><path d="M16.938 18.375h-3.75l.937-3.75h3.75z" class="quaternary" style="fill: rgb(51, 51, 51);"></path><path d="M23.5 12.75c4.406 0 6.562.938 6.562.938s-2.156-1.875-6.562-1.875z" class="secondary" style="fill: rgb(255, 222, 0);"></path><path d="M25.375 7.125S23.5 7.125 23.5 9v4.688h.938V9z" class="quaternary" style="fill: rgb(51, 51, 51);"></path><path d="M24.438 11.812h-1.875v1.875c0 .562.375.938.938.938s.938-.375.938-.938zM17.875 22.125h-.938a6.52 6.52 0 0 1 6.562-6.562v.937c-3.093 0-5.624 2.531-5.624 5.625M1.938 22.125H1a6.52 6.52 0 0 1 6.562-6.562v.937c-3.093 0-5.624 2.531-5.624 5.625" class="quaternary" style="fill: rgb(51, 51, 51);"></path><circle cx="7.562" cy="22.125" r="4.688" class="quaternary" style="fill: rgb(51, 51, 51);"></circle><circle cx="7.562" cy="22.125" r="2.812" class="secondary" style="fill: rgb(255, 222, 0);"></circle><circle cx="7.562" cy="22.125" r=".938" class="shadow" style="opacity: 0.3; fill: rgb(51, 51, 51);"></circle><circle cx="23.5" cy="22.125" r="4.688" class="quaternary" style="fill: rgb(51, 51, 51);"></circle><circle cx="23.5" cy="22.125" r="2.812" class="secondary" style="fill: rgb(255, 222, 0);"></circle><circle cx="23.5" cy="22.125" r=".938" class="shadow" style="opacity: 0.3; fill: rgb(51, 51, 51);"></circle></svg>