<svg xmlns="http://www.w3.org/2000/svg" viewBox="0 0 500 500" xmlns:bx="https://boxy-svg.com">
  <path d="M 175.928 149.901 L 215.122 149.901 L 215.122 164.891 L 175.928 164.891 L 175.928 149.901 Z" class="primary" style="fill: rgb(54, 124, 43); transform-origin: 195.525px 157.395px;" transform="matrix(0, -1.150695, 0.86904, 0, 0.000012, 0.000004)"></path>
  <path d="M 64.631 118.388 L 116.527 118.388 L 116.527 131.415 L 64.631 131.415 L 64.631 118.388 Z" class="primary" style="fill: rgb(54, 124, 43); transform-box: fill-box; transform-origin: 50% 50%;" transform="matrix(0, -1, 1, 0, 0.000006, 0.000006)"></path>
  <path d="M 82.133 135.891 L 107.863 135.891 L 107.863 140.077 L 82.133 140.077 L 82.133 135.891 Z" class="shadow" style="opacity: 0.3; fill: rgb(51, 51, 51); transform-box: fill-box; transform-origin: 50% 50%;" transform="matrix(0, -1, 1, 0, 0.000009, -0.000006)"></path>
  <g transform="matrix(1, 0, 0, 1, 0.094932, -2.255005)">
    <path d="M 72.73 161.96 L 108.237 161.96 L 108.237 174.985 L 72.73 174.985 L 72.73 161.96 Z" class="primary" style="transform-box: fill-box; transform-origin: 50% 50%;" transform="matrix(0, -1, 1, 0, -0.000004, -0.000001)"></path>
    <path d="M 83.971 159.864 L 147.292 186.226 L 83.971 186.226 L 83.971 159.864 Z" bx:shape="triangle 83.971 159.864 63.321 26.362 0 0 1@53a25372" style=""></path>
  </g>
  <path d="M 335.909 255.103 C 328.001 255.103 320.558 250.916 315.906 244.404 C 312.649 243.473 309.858 242.078 307.532 240.217 C 307.997 241.612 307.532 243.008 307.067 243.938 C 306.137 245.334 304.741 246.264 303.346 246.264 C 276.83 246.264 272.643 229.983 272.643 220.214 C 269.852 223.005 266.13 224.4 261.943 224.4 C 253.57 224.4 246.592 217.422 246.592 209.049 L 246.592 207.653 C 246.127 207.188 246.127 207.188 246.127 206.723 L 246.127 193.698 C 246.127 191.837 247.057 190.441 248.918 189.511 L 274.969 176.486 C 275.434 176.02 276.364 176.02 276.83 176.02 C 278.225 176.02 279.156 176.486 280.086 177.416 L 291.716 189.046 L 305.672 189.046 L 379.172 150.435 C 379.637 149.97 380.567 149.97 381.498 149.97 C 382.428 149.97 383.359 149.97 383.824 150.435 C 385.219 151.365 386.15 152.761 386.15 154.621 L 386.15 189.046 L 390.337 189.046 C 393.128 189.046 394.988 190.906 394.988 193.698 L 394.988 209.049 C 394.988 217.422 388.011 224.4 379.637 224.4 C 377.776 224.4 375.916 223.935 374.055 223.47 C 374.52 224.4 374.985 224.865 375.45 225.796 C 377.311 227.657 380.567 228.587 381.963 228.587 C 383.359 228.587 384.289 229.052 385.219 229.983 L 393.593 238.821 C 394.988 240.217 395.454 242.078 394.523 243.938 C 393.593 245.799 392.197 246.73 390.337 246.73 C 383.824 246.73 367.542 246.73 359.634 236.03 C 357.308 246.73 347.539 255.103 335.909 255.103 M 294.507 211.375 C 292.646 213.701 290.785 216.492 290.785 220.214 C 290.785 222.54 291.251 224.4 292.646 225.796 C 294.507 227.657 297.763 228.587 299.159 228.587 L 299.624 228.587 C 299.159 226.261 298.694 223.005 298.694 220.214 C 298.694 217.422 299.159 214.631 300.554 211.84 L 294.507 211.84 L 294.507 211.375 Z M 350.33 211.375 C 352.191 212.77 354.052 214.631 355.447 216.492 C 355.912 214.631 356.377 213.236 356.843 211.375 L 350.33 211.375 Z M 320.092 212.305 C 320.558 211.84 321.023 211.84 321.023 211.375 L 320.558 211.375 C 320.558 211.84 320.092 212.305 320.092 212.305 M 368.007 189.046 L 368.007 180.207 L 351.26 189.046 L 368.007 189.046 Z" class="outline" style="fill: rgb(255, 255, 255);"></path>
  <path d="M 293.282 228.455 L 302.121 228.455 L 302.121 263.345 L 293.282 263.345 L 293.282 228.455 Z" class="primary" style="fill: rgb(54, 124, 43);"></path>
  <path d="M 293.282 228.455 L 302.121 228.455 L 302.121 250.319 L 293.282 250.319 L 293.282 228.455 Z" class="shadow" style="opacity: 0.3; fill: rgb(51, 51, 51);"></path>
  <path d="M 310.96 306.607 C 289.095 306.607 280.257 299.164 280.257 284.743 C 280.257 274.044 292.352 267.066 292.352 267.066 L 301.19 267.066 C 301.19 267.066 290.026 274.044 289.561 284.743 C 289.095 295.443 298.399 297.769 302.586 297.769 L 310.96 306.607 Z M 223.503 306.607 C 205.826 306.607 197.453 299.164 197.453 284.743 C 197.453 274.044 209.548 267.066 209.548 267.066 L 218.386 267.066 C 218.386 267.066 207.222 274.044 206.756 284.743 C 206.291 294.978 215.595 297.769 219.782 297.769 L 223.503 306.607 Z M 250.019 306.607 C 232.342 306.607 223.969 299.164 223.969 284.743 C 223.969 274.044 236.064 267.066 236.064 267.066 L 244.902 267.066 C 244.902 267.066 233.738 274.044 233.272 284.743 C 232.807 295.443 242.111 297.769 246.298 297.769 L 250.019 306.607 Z" class="tertiary" style="fill: rgb(128, 128, 128);"></path>
  <g style="transform-origin: 320.558px 200.211px;" transform="matrix(0.75271, 0.422513, -0.489481, 0.872014, -180.688766, -55.401585)">
    <path d="M 250.779 193.698 L 390.337 193.698 L 390.337 206.723 L 250.779 206.723 L 250.779 193.698 Z" class="primary" style="fill: rgb(54, 124, 43);"></path>
    <path d="M 259.947 202.963 L 387.356 202.54 L 390.116 206.726 L 262.401 206.722 L 259.947 202.963 Z" class="shadow" style="opacity: 0.3; fill: rgb(51, 51, 51);"></path>
  </g>
  <circle cx="256.532" cy="295.908" r="19.538" class="quaternary" style="fill: rgb(51, 51, 51);"></circle>
  <circle cx="256.532" cy="295.908" r="6.513" class="secondary" style="fill: rgb(255, 222, 0);"></circle>
  <path d="M 302.121 219.616 L 219.317 263.345 L 245.367 263.345 L 302.121 232.642 L 302.121 219.616 Z" class="primary" style="fill: rgb(54, 124, 43);"></path>
  <circle cx="182.101" cy="274.044" r="10.699" class="quaternary" style="fill: rgb(51, 51, 51);"></circle>
  <circle cx="182.101" cy="274.044" r="2.326" class="tertiary" style="fill: rgb(128, 128, 128);"></circle>
  <circle cx="300.26" cy="274.044" r="10.699" class="quaternary" style="fill: rgb(51, 51, 51);"></circle>
  <circle cx="300.26" cy="274.044" r="2.326" class="tertiary" style="fill: rgb(128, 128, 128);"></circle>
  <path d="M 171.402 258.693 L 197.453 245.667 L 219.317 267.531 L 171.402 258.693 Z" class="primary" style="fill: rgb(54, 124, 43);"></path>
  <path d="M 143.994 160.574 L 143.994 188.084 L 83.209 188.084 L 83.209 160.574 Z M 84.209 187.084 L 142.994 187.084 L 142.994 161.574 L 84.209 161.574 Z" style="fill: none;"></path>
  <path d="M 143.994 160.574 L 143.994 188.084 L 83.209 188.084 L 83.209 160.574 Z M 84.209 187.084 L 142.994 187.084 L 142.994 161.574 L 84.209 161.574 Z" style="fill: none;"></path>
  <g transform="matrix(1, 0, 0, 1, 16.829298, -2.441819)">
    <path d="M 36.394 164.121 L 87.749 164.121 L 87.749 157.35 L 36.394 157.35 L 36.394 164.121 Z" class="primary" style="transform-box: fill-box; transform-origin: 50% 50%;" transform="matrix(0, -1, 1, 0, -0.000002, -0.000001)"></path>
    <g transform="matrix(1, 0, 0, 1, 1.558864, 0)">
      <path d="M 37.453 186.413 L 43.335 184.812 C 43.335 184.812 43.837 175.373 46.456 172.097 C 49.167 168.707 49.235 168.214 54.917 166.41 L 63.098 163.813 L 63.098 159.966 L 43.141 159.962 L 37.453 186.413 Z" style="transform-box: fill-box; transform-origin: 50% 50%;" transform="matrix(-1, 0, 0, -1, 0.000007, 0)"></path>
    </g>
  </g>
  <path d="M 171.621 155.068 L 210.603 155.068 L 210.603 159.884 L 171.621 159.884 L 171.621 155.068 Z" class="shadow" style="opacity: 0.3; fill: rgb(51, 51, 51); transform-origin: 191.112px 157.476px;" transform="matrix(0, -1.150695, 0.86904, 0, -0.000011, -0.000002)"></path>
</svg>