<svg xmlns="http://www.w3.org/2000/svg" fill="none" viewBox="0 0 32 32">
  <path fill="#fff" d="M7.121 2.486a1 1 0 0 1 .707-.293h4.56a1 1 0 0 1 .707 1.707l-.108.108 3.738 3.038a1.005 1.005 0 0 1 .923.183l.711.577a.97.97 0 0 1 .064.057l6.653 5.409c.051.041.098.088.14.138v-1.18a1 1 0 0 1 1-1h2.41a.934.934 0 0 1 .218-.004l.053.005.043.003 1.488.139.044.005c.223.031.583.102.91.308.382.241.716.674.716 1.287 0 .562-.272 1.01-.694 1.277-.335.212-.714.274-.939.304a1.234 1.234 0 0 1-.033.004l-.586.057v4.597l1.225.082c.015 0 .03.002.045.004.285.032.692.114 1.035.394.4.327.555.784.555 1.227 0 .287-.04.766-.413 1.154-.353.368-.819.456-1.13.49a1.01 1.01 0 0 1-.072.005l-2.21.076h-2.589a1 1 0 0 1-.577-.133l-.004-.003-14.252-8.228v6.982l9.927 4.042a1 1 0 0 1-.377 1.926H7.829a.997.997 0 0 1-.254-.032.997.997 0 0 1-.253.032H.672a1 1 0 0 1-1-1v-.947a1 1 0 0 1 1.04-1c.823.032 1.559-.158 2.483-1.037.823-.783 1.435-2.036 1.553-3.144v-5.848a1 1 0 0 1 1-1h1.08V3.194a1 1 0 0 1 .293-.708Zm1.632 21.506a.997.997 0 0 0 .075-.382v-5.105a.998.998 0 0 0-.075-.381.997.997 0 0 0 .075-.382V4.193h1.146l-.222.222a1 1 0 0 0-.293.707V9.51a1 1 0 0 0 .5.866l10.467 6.043a1 1 0 0 0 1.366-.366l.67-1.16a1 1 0 0 0-.236-1.276l-5.137-4.176c.01-.02.018-.042.026-.064l6.071 4.936a.998.998 0 0 0 .391.85l-.832 1.44a1 1 0 0 0 .366 1.366l2.604 1.504a1 1 0 0 0 1.5-.866v-5.378h.754a.996.996 0 0 0-.123.48v6.439a1 1 0 0 0 .132.497h-1.495L10.96 11.682a1 1 0 0 0-1.5.866v9.386a1 1 0 0 0 .623.926l5.82 2.37H8.827v-.856a.997.997 0 0 0-.075-.382Zm-2.43 1.238v-.856a.99.99 0 0 1 .075-.382.997.997 0 0 1-.076-.382v-1.6c-.385 1.013-.997 1.97-1.75 2.686-.21.2-.417.377-.625.534h2.375Zm19.898-3.585-.001.002-.005-.002m4.162-9.107h-.002.002Zm-5.162 3.787-.238.412.238.138v-.55Zm-8.077-7.016.067-.082a.996.996 0 0 0 .306-.253l.21-.258a.747.747 0 0 0 .07-.078m-.13-.11-.643-.523.642.522Zm.067.054-.068-.055.068.055Zm-1.696-.959-3.674-2.986 3.674 2.986Zm-4.573-1.14v2.45l6.327 3.652-2.709-2.202a1 1 0 0 1-.28-1.187l-3.338-2.713Z"/>
  <path fill="#367C3C" d="M26.215 21.645v-9.416h2.631v9.416h-2.63Z" class="color1"/>
  <path fill="#757575" d="m11.362 3.975 8.086 6.574-.558.687-8.086-6.575.558-.686Z"/>
  <path fill="#367C3C" d="m9.643 9.039 17.888 10.327-1.316 2.279L8.328 11.317 9.643 9.04Zm7.368-1.035 7.434 6.044-1.303 1.603-7.434-6.044 1.303-1.603Z" class="color1"/>
  <path fill="#367C3C" d="M7.828 23.029V3.193h2.631V23.03H7.83Zm14.427-9.774 2.683 1.55-1.871 3.242-2.684-1.55 1.872-3.242Z" class="color1"/>
  <path fill="#333" d="m17.018 8.005.71.577-1.303 1.603-.71-.577 1.303-1.603ZM9.572 17.742v-6.743l.737.438 9.745 5.626 1.997-3.459.003.002.202-.351 2.682 1.548-.45.78-.01-.005-1.749 3.03 3.486 2.012v-8.39h.916v9.415h-.91l-.001.002-15.76-9.1v5.195h-.888Zm12.997-3.266-1.75 3.03 1.144.66 1.749-3.03-1.143-.66Z" opacity=".3"/>
  <path fill="#367C3C" d="M12.388 3.193H9.223v3.165l3.165-3.165Z" class="color1"/>
  <path fill="#333" d="M10.94 3.733H8.415v2.523l2.523-2.523Z" opacity=".3"/>
  <path fill="#333" d="M7.828 26.23v-8.488h2.631v8.488H7.83Zm-2.08 0V14.254h1.574V26.23H5.748Z"/>
  <path fill="#333" d="M6.868 18.505v-.763h1.574v.763H6.868Zm.227 5.869v-.764H8.67v.764H7.095ZM.673 26.23h5.075v-6.502c0 1.462-.766 3.183-1.877 4.243-1.111 1.06-2.104 1.354-3.198 1.312v.947Zm20.336 0H10.016v-4.476l10.993 4.476Z"/>
  <path fill="#367C3C" d="m30.366 12.368-1.518-.147v1.497l1.518-.155c.393-.054.732-.17.732-.59 0-.42-.393-.555-.732-.605Zm.639 7.924-2.159-.144v1.497l2.21-.077c.508-.054.65-.23.65-.649 0-.419-.264-.578-.701-.627Z" class="color1"/>
</svg>