<svg data-icon-name="TractorRowCrop" xmlns="http://www.w3.org/2000/svg" xml:space="preserve" id="tractor-row-crop__main_shape" x="0" y="0" version="1.1" viewBox="0 0 32 32" class="tractor-row-crop" style="background-image: none; background-position: 0% 0%; display: inline; fill: rgb(51, 51, 51); height: 32px; width: 32px;"><path d="M23.5 26.8c-2.8 0-5.1-2-5.6-4.7h-4.1c-1 2.8-3.6 4.7-6.7 4.7-3.9 0-7.1-3.2-7.1-7.1 0-2 .9-3.9 2.3-5.3l-.1-.1c-.3-.3-.4-.8-.2-1.2 0-.1 1.1-2.2 4.6-2.4V8.1c-.6-.1-1-.5-1-1v-1c0-.9.7-1.9 1.9-1.9h9.4c.4 0 .8.3.9.6.6-.5 1.3-.6 1.9-.6.3 0 .7.2.9.5s.2.7 0 1l-.8 1.7V9c8.6.7 11.8 3.7 11.9 3.9.2.2.3.6.3.9l-.9 5.1.6.6c.2.2.3.4.3.7v1.9c0 .6-.4 1-1 1h-.5l-.6.6c-.2.2-.4.3-.7.3h-.7c-1.1 1.7-3 2.8-5 2.8" class="outline" style="fill: rgb(255, 255, 255);"></path><path d="M15.1 15.5h-.9s-1.9-4.7-5.6-4.7V7.1h5.6c.7 0 .9.3.9.9z" class="quinary" style="fill: rgb(255, 255, 255);"></path><path d="M12.2 17.4v3.7h15v-7.5h-6.5z" class="primary" style="fill: rgb(54, 124, 43);"></path><path d="M12.2 17.4v3.7h15v-7.5h-6.5z" class="shadow" style="opacity: 0.3; fill: rgb(51, 51, 51);"></path><path d="M12.2 17.4v3.7h15v-7.5h-6.5z" class="shadow" style="opacity: 0.3; fill: rgb(51, 51, 51);"></path><path d="m30.1 19.2.9.9V22h-.9l-1 1h-1.9v-2.8c0-1.9 0-6.6-4.7-6.6s-4.7 3.8-4.7 3.8H16V9.9c11.2 0 15 3.8 15 3.8z" class="primary" style="fill: rgb(54, 124, 43);"></path><path d="m28.2 16.4-3.3-3.7 2.3.5z" class="quaternary" style="fill: rgb(51, 51, 51);"></path><path d="M17.9 11.8c8 0 10.3.9 10.3.9s-3.2-1.9-10.3-1.9z" class="secondary" style="fill: rgb(255, 222, 0);"></path><path d="M19.8 5.2s-1.9 0-1.9 1.9v5.6h.9V7.1z" class="quaternary" style="fill: rgb(51, 51, 51);"></path><path d="M16.9 5.2H7.5c-.9 0-.9.9-.9.9h10.3z" class="primary" style="fill: rgb(54, 124, 43);"></path><path d="M17.9 21.1c0-2.8 1.9-4.7 5.6-4.7v4.7z" class="quinary" style="fill: rgb(255, 255, 255);"></path><path d="m31 13.6-.9 6.6s-.8.1-.9-.9-.9-6.1-.9-6.1z" class="quaternary" style="fill: rgb(51, 51, 51);"></path><path d="m13.7 9.1-.5-.3-1.1 1.8.4.3z" class="tertiary" style="fill: rgb(128, 128, 128);"></path><path d="M16 9.9v5.6h-.9l-2.3-5.6z" class="tertiary" style="fill: rgb(128, 128, 128);"></path><path d="M6.6 6.1V7h.9v5.6H4.8l4.7 4.7H16V6.1zm8.5 9.4h-.9s-1.9-4.7-5.6-4.7V7.1h5.6c.7 0 .9.3.9.9z" class="quaternary" style="fill: rgb(51, 51, 51);"></path><path d="M15.1 15.5h-.9s-1.9-4.7-5.6-4.7V7.1h5.6c.7 0 .9.3.9.9z" class="window" style="opacity: 0.3; fill: rgb(93, 201, 232);"></path><path d="M18.8 10.8h-1.9v2.8c0 .6.4.9.9.9s.9-.4.9-.9v-2.8z" class="quaternary" style="fill: rgb(51, 51, 51);"></path><circle cx="23.5" cy="21.1" r="4.7" class="quaternary" style="fill: rgb(51, 51, 51);"></circle><circle cx="23.5" cy="21.1" r="2.8" class="secondary" style="fill: rgb(255, 222, 0);"></circle><circle cx="23.5" cy="21.1" r="1.4" class="shadow" style="opacity: 0.3; fill: rgb(51, 51, 51);"></circle><path d="M12.2 14.6s-.9-2.8-5.2-2.8c-3.3 0-4.2 1.9-4.2 1.9s1.3-.9 4.2-.9c3.3 0 4.2 1.9 4.2 1.9h1z" class="primary" style="fill: rgb(54, 124, 43);"></path><path d="M27.2 23h1.9l1-.9h-2.9z" class="shadow" style="opacity: 0.3; fill: rgb(51, 51, 51);"></path><path d="M11.3 20.2H16l-1.9-3.8h-2.8z" class="tertiary" style="fill: rgb(128, 128, 128);"></path><circle cx="7.1" cy="19.7" r="6.1" class="quaternary" style="fill: rgb(51, 51, 51);"></circle><circle cx="7.1" cy="19.7" r="3.8" class="secondary" style="fill: rgb(255, 222, 0);"></circle><circle cx="7.1" cy="19.7" r="1.9" class="shadow" style="opacity: 0.3; fill: rgb(51, 51, 51);"></circle></svg>