<svg xmlns="http://www.w3.org/2000/svg" xml:space="preserve" class="combine" data-icon-name="Combine" style="background-image:none;background-position:0 0;display:inline;fill:#333;height:40px;width:40px;fill-opacity:.01" version="1.0" viewBox="0 0 32 32"><path d="M23.045 27.014a5.17 5.17 0 0 1-4.973-3.759h-4.86a3.793 3.793 0 0 1-3.788 3.759 3.79 3.79 0 0 1-3.788-3.788c0-.931.341-1.815.94-2.498L5 18.34l-1.646-.823a.97.97 0 0 1-.536-.867c0-1.702.334-3.343.716-4.666H3.25l-.655.655a.97.97 0 0 1-.686.284H.97a.97.97 0 0 1-.92-1.276l.939-2.818a.97.97 0 0 1 .92-.663l10.087-.001-1.5-2.249a.97.97 0 0 1 .807-1.507h15.03a.969.969 0 0 1 .807 1.507l-.873 1.31h4.763a.97.97 0 0 1 .97.97v1.88a1 1 0 0 1-.079.382l-2.818 6.575a.97.97 0 0 1-.835.586l3.261 1.957c.292.175.471.49.471.831v1.879a.97.97 0 0 1-.97.97h-3.011a5.174 5.174 0 0 1-4.974 3.758" class="outline" style="fill:#fff"/><path d="M24.438 9.148v1.875l1.566 4.688.309.937v.938L31 20.398v1.875H8.781l-3.094-4.687-1.875-.938c0-2.166.572-4.219 1.078-5.625.422-1.153.797-1.875.797-1.875h7.5V8.21H31v.938z" class="primary" style="fill:#367c2b"/><path d="M28.188 16.648h-1.876l-1.874-5.625v-.937H31z" class="quinary" style="fill:#fff"/><path d="m30.25 11.96-1.687 3.75-.816-2.953-.309.516-.563-.282L28 11.116l.563.282-.338.562z" class="tertiary" style="fill:gray"/><path d="M28.188 16.648h-1.876l-1.874-5.625v-.937H31z" class="window" style="opacity:.3;fill:#5dc9e8"/><path d="M1.938 9.148H12.25v1.875H1.938zm24.374 6.562v.938l-.309-.938zm0-10.312h-15l1.876 2.813h11.25z" class="primary" style="fill:#367c2b"/><path d="M5.688 9.148s-.375.722-.797 1.875H1.938V9.148z" class="shadow" style="opacity:.3;fill:#333"/><path d="M26.312 15.71v.938l-.309-.938z" class="primary" style="fill:#367c2b"/><path d="M26.003 15.711h2.559l-.374.937h-1.876z" class="quaternary" style="fill:#333"/><circle cx="23.031" cy="21.804" r="4.219" class="quaternary" style="fill:#333"/><path d="M4.281 12.898c6.281 0 14.625.844 20.156 1.875 0 0-14.531-.938-20.344-.938z" class="secondary" style="fill:#ffde00"/><path d="M31 20.398v1.875H8.781l-3.094-4.687s0-1.125 2.437-1.125c1.275 0 3.103 1.378 5.063 2.269V8.21l-1.875-2.812h15L24.438 8.21H13.656v2.344h10.781v.469H13.656v7.903c.778.319 1.566.534 2.344.534 2.906 0 2.625-2.812 5.625-2.812h4.688v.938z" class="shadow" style="opacity:.3;fill:#333"/><circle cx="23.031" cy="21.804" r="2.344" class="secondary" style="fill:#ffde00"/><circle cx="23.031" cy="21.804" r="1.406" class="shadow" style="opacity:.3;fill:#333"/><circle cx="9.438" cy="23.211" r="2.812" class="quaternary" style="fill:#333"/><circle cx="9.438" cy="23.211" r=".938" class="secondary" style="fill:#ffde00"/><path d="M1 11.961h.938l.937-.938-.937-1.875zm23.438-2.813H31v.938h-6.562z" class="quaternary" style="fill:#333"/></svg>