<svg data-icon-name="TractorQuadTrack8rx" xmlns="http://www.w3.org/2000/svg" xml:space="preserve" id="tractor-quad-track-8rx__main_shape_1_" x="0" y="0" version="1.1" viewBox="0 0 32 32" class="tractor-quad-track-8rx" style="background-image: none; background-position: 0% 0%; display: inline; fill: rgb(51, 51, 51); height: 65px; width: 65px;"><path d="M20 27.6c-1.7 0-3.1-1.4-3.1-3.1 0-.7.2-1.4.7-2l.1-.1h-.5v.2c0 .3-.1.6-.3.8 0 .2.1.5.1.7 0 1.9-1.4 3.4-3.3 3.6H3.6C1.6 27.6 0 26 0 24c0-.8.3-1.6.8-2.2L2.2 20 .7 18.5c-.2-.2-.3-.4-.3-.7s.1-.5.3-.7l2-2c.2-.2.5-.3.7-.3s.5.1.7.3l.7.7s.2-.3.3-.3l-.8-.8c-.3-.3-.4-.9-.1-1.3l1.1-1.5c.1-.2.3-.3.5-.4s.5-.2.8-.2V8c-.7-.3-1-1-1-1.6 0-.9.7-1.9 1.9-1.9h10.3c.6 0 1 .4 1 1v.1c.3-.1.6-.1.9-.1s.7.2.9.5.2.7 0 1l-.8 1.7v1.7c.5 0 1 0 1.4.1.9.1 2.2.1 3.7.3.3 0 .9.1 1.7.3.8.1 1.3.2 2.1.4.6.2 1.2.4 1.8.7.1.1.3.1.4.3.2.2.3.4.5.6.1.2.3.3.4.5.2.3.3.6.2 1l-2.2 6.6c-.1.2-.2.3-.3.4l.9 1.2c.4.6.7 1.2.7 2 0 1.6-1.2 3-2.9 3.1H20z" class="outline" style="fill: rgb(255, 255, 255);"></path><path d="M31 13.9c-.3-.4-.6-.7-.9-1.1-.7-.3-1.3-.5-1.7-.6-.7-.2-1.2-.3-2-.4-.7-.1-1.3-.2-1.7-.3q-1.95-.3-3.6-.3c-1.3-.1-3-.1-5.1-.1v4.6h-1.8l-6.4.6v5.1h18.9l2.1-.8.7-1.9zM17.9 5.4H7.6c-.9 0-.9.9-.9.9H18v-.9z" class="primary" style="fill: rgb(54, 124, 43);"></path><path d="M9.4 7.3c-.6 0-.9.4-.9.9v2c0 .5.4.8.8.9 3.3.6 4.9 4.6 4.9 4.6H16V7.3z" class="quinary" style="fill: rgb(255, 255, 255);"></path><path d="M16 11.1h-2.4l.5-.7-.4-.3-1.2 1.8.5.3.4-.7 2.6 4.2z" class="tertiary" style="fill: rgb(128, 128, 128);"></path><path d="M9.4 7.3c-.6 0-.9.4-.9.9v2c0 .5.4.8.8.9 3.3.6 4.9 4.6 4.9 4.6H16V7.3z" class="window" style="opacity: 0.3; fill: rgb(93, 201, 232);"></path><path d="M17.9 8.3v2.8H17V6.4H6.6s0 .9.9.9h.1V12L5 13.8l3 3h9c.1.5.4.8.9.8s.9-.4.9-.9V8.3l.9-1.9s-1.8 0-1.8 1.9M8.5 9.4V8.2c0-.6.4-.9.9-.9H16v8.4h-1.9s-1.6-4-4.9-4.6c-.4-.1-.8-.5-.8-.9v-.8z" class="quaternary" style="fill: rgb(51, 51, 51);"></path><path d="M5 13.8c.4-.2 1.7-.6 3.3-.2 1.5.4 2.4 1.3 2.7 1.7.6-.1 1.2-.1 1.7-.2-.2-.4-.9-1.8-2.5-2.6-2-1-3.9-.3-4.2-.2-.3.5-.7 1-1 1.5M3.3 17.8l1.1-1.1-1-1-1.1 1.1-.9 1 .9.9 2.1 2 .9-.9z" class="primary" style="fill: rgb(54, 124, 43);"></path><path d="m3.3 17.8 1.1-1.1-1-1-1.1 1.1-.9 1 .9.9 2.1 2 .9-.9z" class="shadow" style="opacity: 0.3; fill: rgb(51, 51, 51);"></path><path d="m26.8 14.5-.5-.9-3.5-.1z" class="highlight" style="opacity: 0.3; fill: rgb(255, 255, 255);"></path><path d="m18.8 15.2 3.2-1.7h-3.2z" class="shadow" style="opacity: 0.3; fill: rgb(51, 51, 51);"></path><path d="m29.4 18.6 1.6-4.7-.9-1-3.6-.4 2.4 1.4v4.4z" class="quaternary" style="fill: rgb(51, 51, 51);"></path><path d="M18.8 11.6c1.5 0 3 .1 4.6.3 2.4.2 3.1.4 5.1.8l-2-.2c-.4-.1-3.4-.4-4.4-.4-.1.1-.3.2-.4.3l-2.9-.1z" class="secondary" style="fill: rgb(255, 222, 0);"></path><path d="m27.9 14.7-.5-1-1.1-.1.5.9zM28.8 20.6l-.9-5.1-4.3-1-2.7 1.5 2.4-.1 3.1.7z" class="quaternary" style="fill: rgb(51, 51, 51);"></path><path d="M8.9 21.4h10.7l-4-3.8H8.9z" class="tertiary" style="fill: rgb(128, 128, 128);"></path><path d="M8.9 21.4h10.7l-4-3.8H8.9z" class="shadow" style="opacity: 0.3; fill: rgb(51, 51, 51);"></path><path d="M15.6 17.6v.5H14v-.5h-.5v5h.5v-.4h1.6v.4h.5v-5zm0 4H14V21h1.6zm0-1.1H14v-.7h1.6zm0-1.2H14v-.7h1.6z" class="quaternary" style="fill: rgb(51, 51, 51);"></path><path d="M19.6 21.4h7l2.2-.8-2.4-4-3-.7-2.5.1-2.9 3.8z" class="shadow" style="opacity: 0.3; fill: rgb(51, 51, 51);"></path><path d="M10.3 16.9c-.2-.2-.9-.7-1.8-.7s-1.7.5-1.8.7l-5 6.3c0 .1-.4 1.1.2 2.1.5.8 1.4 1 1.5 1h10.4c.1 0 1-.2 1.5-1 .6-1 .2-2 .2-2.1z" class="tertiary" style="fill: rgb(128, 128, 128);"></path><path d="M10.3 16.9c-.2-.2-.9-.7-1.8-.7s-1.7.5-1.8.7l-5 6.3c0 .1-.4 1.1.2 2.1.5.8 1.4 1 1.5 1h10.4c.1 0 1-.2 1.5-1 .6-1 .2-2 .2-2.1z" class="shadow" style="opacity: 0.3; fill: rgb(51, 51, 51);"></path><path d="M11.2 21.6H5.5c-.4 0-.8.4-.8.8v2c0 .4.4.8.8.8h5.7c.4 0 .8-.4.8-.8v-2c0-.4-.4-.8-.8-.8" class="primary" style="fill: rgb(54, 124, 43);"></path><path d="M11.2 21.6H5.5c-.4 0-.8.4-.8.8v2c0 .4.4.8.8.8h5.7c.4 0 .8-.4.8-.8v-2c0-.4-.4-.8-.8-.8" class="shadow" style="opacity: 0.3; fill: rgb(51, 51, 51);"></path><path d="M1.8 24c0-.4.1-.8.4-1.1l4.2-5.3c.5-.6 1.2-.9 2-.9s1.5.3 2 .9l4.2 5.3c.2.3.4.7.4 1.1 0 .9-.7 1.7-1.6 1.8H3.6c-1 0-1.8-.8-1.8-1.8M1 24c0 1.4 1.2 2.6 2.6 2.6h9.9c1.4-.1 2.4-1.2 2.4-2.6 0-.6-.2-1.2-.6-1.6L11 17.1c-.7-.7-1.6-1.2-2.6-1.2s-1.9.4-2.6 1.2l-4.2 5.3c-.4.4-.6 1-.6 1.6" class="quaternary" style="fill: rgb(51, 51, 51);"></path><circle cx="13.2" cy="24" r="1.8" class="secondary" style="fill: rgb(255, 222, 0);"></circle><circle cx="3.6" cy="24" r="1.8" class="secondary" style="fill: rgb(255, 222, 0);"></circle><circle cx="8.4" cy="19.4" r="2.7" class="secondary" style="fill: rgb(255, 222, 0);"></circle><circle cx="8.4" cy="19.4" r="1.8" class="shadow" style="opacity: 0.3; fill: rgb(51, 51, 51);"></circle><circle cx="8.4" cy="19.4" r="1.1" class="secondary" style="fill: rgb(255, 222, 0);"></circle><circle cx="3.6" cy="24" r=".7" class="shadow" style="opacity: 0.3; fill: rgb(51, 51, 51);"></circle><circle cx="13.2" cy="24" r=".7" class="shadow" style="opacity: 0.3; fill: rgb(51, 51, 51);"></circle><path d="M9.9 23.2c-.8 0-1.5.7-1.5 1.5s.7 1.5 1.5 1.5 1.5-.7 1.5-1.5-.7-1.5-1.5-1.5M6.8 23.2c-.8 0-1.5.7-1.5 1.5s.7 1.5 1.5 1.5 1.5-.7 1.5-1.5-.7-1.5-1.5-1.5" class="quaternary" style="fill: rgb(51, 51, 51);"></path><path d="m11.3 20.4-1.8.4c-.6.1-1.6.1-2.2 0l-1.8-.4c-.3-.1-.6.1-.6.5v.3c0 .3.3.7.6.7l2 .5v.2c0 .5.4.9.9.9s.9-.4.9-.9v-.2l2.1-.5c.3-.1.6-.4.6-.7v-.3c-.1-.4-.4-.6-.7-.5" class="primary" style="fill: rgb(54, 124, 43);"></path><path d="M9.9 23.9c-.4 0-.8.3-.8.8 0 .4.3.8.8.8s.8-.3.8-.8c0-.4-.4-.8-.8-.8M6.8 23.9c-.4 0-.8.3-.8.8 0 .4.3.8.8.8s.8-.3.8-.8c0-.4-.4-.8-.8-.8" class="highlight" style="opacity: 0.3; fill: rgb(255, 255, 255);"></path><path d="M25.5 18.6c-.2-.1-.7-.5-1.5-.5s-1.4.4-1.5.5l-4.1 5.2c0 .1-.4.9.1 1.7.4.7 1.1.8 1.3.8h8.6c.1 0 .8-.2 1.3-.8.5-.8.2-1.6.1-1.7z" class="tertiary" style="fill: rgb(128, 128, 128);"></path><path d="M25.5 18.6c-.2-.1-.7-.5-1.5-.5s-1.4.4-1.5.5l-4.1 5.2c0 .1-.4.9.1 1.7.4.7 1.1.8 1.3.8h8.6c.1 0 .8-.2 1.3-.8.5-.8.2-1.6.1-1.7z" class="shadow" style="opacity: 0.3; fill: rgb(51, 51, 51);"></path><path d="M26.2 22.5h-4.7c-.4 0-.7.3-.7.7v1.6c0 .4.3.7.7.7h4.7c.4 0 .7-.3.7-.7v-1.6c0-.4-.3-.7-.7-.7" class="primary" style="fill: rgb(54, 124, 43);"></path><path d="M26.2 22.5h-4.7c-.4 0-.7.3-.7.7v1.6c0 .4.3.7.7.7h4.7c.4 0 .7-.3.7-.7v-1.6c0-.4-.3-.7-.7-.7" class="shadow" style="opacity: 0.3; fill: rgb(51, 51, 51);"></path><path d="M18.5 24.5c0-.3.1-.7.3-.9l3.5-4.4c.4-.5 1-.7 1.7-.7s1.3.3 1.7.7l3.5 4.4q.3.45.3.9c0 .8-.6 1.4-1.3 1.5H20c-.9-.1-1.5-.7-1.5-1.5m-.7 0c0 1.2 1 2.1 2.1 2.1H28c1.1-.1 2-1 2-2.1 0-.5-.2-1-.5-1.3L26 18.8c-.6-.6-1.3-1-2.2-1-.8 0-1.6.4-2.1 1l-3.5 4.4c-.2.3-.4.8-.4 1.3" class="quaternary" style="fill: rgb(51, 51, 51);"></path><circle cx="27.9" cy="24.5" r="1.5" class="secondary" style="fill: rgb(255, 222, 0);"></circle><circle cx="20" cy="24.5" r="1.5" class="secondary" style="fill: rgb(255, 222, 0);"></circle><circle cx="23.9" cy="20.7" r="2.2" class="secondary" style="fill: rgb(255, 222, 0);"></circle><circle cx="23.9" cy="20.7" r="1.5" class="shadow" style="opacity: 0.3; fill: rgb(51, 51, 51);"></circle><circle cx="23.9" cy="20.7" r=".9" class="secondary" style="fill: rgb(255, 222, 0);"></circle><circle cx="20" cy="24.5" r=".6" class="shadow" style="opacity: 0.3; fill: rgb(51, 51, 51);"></circle><circle cx="27.9" cy="24.5" r=".6" class="shadow" style="opacity: 0.3; fill: rgb(51, 51, 51);"></circle><path d="M25.2 23.8c-.7 0-1.2.5-1.2 1.2s.5 1.2 1.2 1.2 1.2-.5 1.2-1.2-.5-1.2-1.2-1.2M22.6 23.8c-.7 0-1.2.5-1.2 1.2s.5 1.2 1.2 1.2 1.2-.5 1.2-1.2-.5-1.2-1.2-1.2" class="quaternary" style="fill: rgb(51, 51, 51);"></path><path d="m26.3 21.5-1.5.3c-.5.1-1.3.1-1.9 0l-1.5-.3c-.3-.1-.5.1-.5.4v.3c0 .3.2.5.5.6l1.7.4v.2c0 .4.3.7.7.7s.7-.3.7-.7v-.2l1.7-.4c.3-.1.5-.3.5-.6v-.3c.1-.3-.1-.5-.4-.4" class="primary" style="fill: rgb(54, 124, 43);"></path><path d="M25.2 24.4c-.3 0-.6.3-.6.6s.3.6.6.6.6-.3.6-.6-.3-.6-.6-.6M22.6 24.4c-.3 0-.6.3-.6.6s.3.6.6.6.6-.3.6-.6-.3-.6-.6-.6" class="highlight" style="opacity: 0.3; fill: rgb(255, 255, 255);"></path><path d="M4 19.1c-.1 0-.2 0-.3-.1-.2-.2-.2-.5 0-.7l2-2.2c.7-.8 1.7-1.3 2.8-1.3s2.1.5 2.8 1.3l1 1c.2.2.2.5 0 .7s-.5.2-.7 0l-.9-1c-1.1-1.3-3.2-1.3-4.3 0l-2 2.2c-.1.1-.3.1-.4.1M20.3 20.2c-.1 0-.2 0-.2-.1-.1-.1-.1-.4 0-.5l1.2-1.2c.7-.8 1.7-1.2 2.7-1.2s2 .4 2.7 1.2l.5.5c.1.1.1.4 0 .5s-.4.1-.5 0l-.5-.5c-.6-.6-1.4-1-2.2-1s-1.6.4-2.2 1l-1.2 1.2c-.1 0-.2.1-.3.1" class="tertiary" style="fill: rgb(128, 128, 128);"></path></svg>