<svg data-icon-name="TractorQuadTrack" xmlns="http://www.w3.org/2000/svg" xml:space="preserve" viewBox="0 0 32 32" class="tractor-quad-track" style="background-image: none; background-position: 0% 0%; display: inline; fill: rgb(51, 51, 51); height: 65px; width: 65px;"><g id="tractor-quad-track__outline"><path d="M13.1 21.2c-.6 0-1-.4-1-1V17c0-.6.4-1 1-1h1.1c.6 0 1 .4 1 1v3.2c0 .6-.4 1-1 1z" class="outline" style="fill: rgb(255, 255, 255);"></path><path d="M19.4 27.4c-1.7 0-3.1-1.2-3.4-2.8-.3 1.5-1.5 2.7-3.1 2.8H3.4C1.5 27.4 0 25.9 0 24c0-.8.3-1.5.8-2.2l2.5-3.1c-.2-.2-.3-.5-.3-.7 0-.4.1-.8.4-1.1l.9-1 .3-.3v-.3c0-.4.2-.8.6-1 .7-.3 1.5-.6 2.3-.8l.2-.1c1-.3 2.1-.6 3.3-.6h.4c.1 0 .4 0 .7.1V8c-.6-.4-.9-1-.9-1.7 0-.9.7-1.9 1.9-1.9h10.3c.3 0 .5.1.7.3.4-.2.8-.2 1.2-.2.3 0 .7.2.9.5s.2.7 0 1l-.8 1.7v2.9c4.1.8 6.4 2.6 6.6 3.2.1.2.1.3 0 .5l-1.4 6.6.7.8c.5.6.8 1.4.8 2.2 0 1.8-1.4 3.3-3.1 3.4h-9.6zm-5.5-7.3-.1-.5c0 .1-.1.2-.1.3zm-.4-2 .1.1-.1-.8-.2-.2h-.2v.4z" class="outline" style="fill: rgb(255, 255, 255);"></path></g><g id="tractor-quad-track__main_shape"><path d="M9.8 17.2c-.2-.2-.9-.6-1.8-.6s-1.6.4-1.7.6l-4.8 6c0 .1-.4 1.1.2 2 .5.8 1.3.9 1.4 1h9.8c.1 0 1-.2 1.4-1 .6-.9.2-1.9.2-2z" class="tertiary" style="fill: rgb(128, 128, 128);"></path><path d="M15 7.5c-.1 0-.3 0-.4.1-.1 0-.2.1-.2.2-.2.2-.3.4-.3.7v2c0 .5.4.8.8.9 1.8.3 3.2 1.7 3.9 2.9.5-.2 1-.3 1.5-.4.4-.1.7-.1 1.1-.1h.2V7.5z" class="quinary" style="fill: rgb(255, 255, 255);"></path><path d="M9.8 17.2c-.2-.2-.9-.6-1.8-.6s-1.6.4-1.7.6l-4.8 6c0 .1-.4 1.1.2 2 .5.8 1.3.9 1.4 1h9.8c.1 0 1-.2 1.4-1 .6-.9.2-1.9.2-2z" class="shadow" style="opacity: 0.3; fill: rgb(51, 51, 51);"></path><path d="M10.6 21.7H5.3c-.4 0-.8.3-.8.8v1.9c0 .4.3.8.8.8h5.4c.4 0 .8-.3.8-.8v-1.9c-.1-.5-.4-.8-.9-.8" class="primary" style="fill: rgb(54, 124, 43);"></path><path d="M10.6 21.7H5.3c-.4 0-.8.3-.8.8v1.9c0 .4.3.8.8.8h5.4c.4 0 .8-.3.8-.8v-1.9c-.1-.5-.4-.8-.9-.8" class="shadow" style="opacity: 0.3; fill: rgb(51, 51, 51);"></path><path d="M1.7 23.9c0-.4.1-.8.4-1.1l4-5c.5-.5 1.2-.8 1.9-.8.8 0 1.4.3 1.9.9l4 5c.2.3.4.7.4 1.1 0 .9-.7 1.6-1.5 1.7H3.4c-.9-.1-1.7-.8-1.7-1.8m-.7 0c0 1.3 1.1 2.4 2.4 2.4h9.3c1.3-.1 2.2-1.2 2.2-2.4 0-.6-.2-1.1-.5-1.5l-4-5c-.6-.7-1.4-1.1-2.4-1.1s-1.8.4-2.5 1.1l-4 5c-.3.4-.5 1-.5 1.5" class="quaternary" style="fill: rgb(51, 51, 51);"></path><circle cx="12.6" cy="23.9" r="1.7" class="secondary" style="fill: rgb(255, 222, 0);"></circle><circle cx="3.4" cy="23.9" r="1.7" class="secondary" style="fill: rgb(255, 222, 0);"></circle><circle cx="8" cy="19.6" r="2.5" class="secondary" style="fill: rgb(255, 222, 0);"></circle><circle cx="8" cy="19.6" r="1.7" class="shadow" style="opacity: 0.3; fill: rgb(51, 51, 51);"></circle><circle cx="8" cy="19.6" r="1.1" class="secondary" style="fill: rgb(255, 222, 0);"></circle><circle cx="3.4" cy="23.9" r=".7" class="shadow" style="opacity: 0.3; fill: rgb(51, 51, 51);"></circle><circle cx="12.6" cy="23.9" r=".7" class="shadow" style="opacity: 0.3; fill: rgb(51, 51, 51);"></circle><path d="M9.4 23.2c-.8 0-1.4.6-1.4 1.4 0 .7.7 1.4 1.4 1.4s1.4-.6 1.4-1.4-.6-1.4-1.4-1.4M6.5 23.2c-.8 0-1.4.6-1.4 1.4S5.7 26 6.5 26s1.4-.6 1.4-1.4-.7-1.4-1.4-1.4" class="quaternary" style="fill: rgb(51, 51, 51);"></path><path d="m10.7 20.5-1.7.4c-.6.1-1.5.1-2.1 0l-1.7-.4c-.3-.1-.6.1-.6.4v.3c0 .3.3.6.6.7l1.9.4v.2c0 .5.4.8.8.8.5 0 .8-.4.8-.8v-.2l2-.4c.3-.1.6-.4.6-.7v-.3c0-.3-.2-.5-.6-.4" class="primary" style="fill: rgb(54, 124, 43);"></path><path d="M9.4 23.8c-.4 0-.7.3-.7.7s.3.7.7.7.7-.3.7-.7c.1-.3-.3-.7-.7-.7M6.5 23.8c-.4 0-.7.3-.7.7s.3.7.7.7.7-.3.7-.7c0-.3-.3-.7-.7-.7" class="tertiary" style="fill: rgb(128, 128, 128);"></path><path d="M13.1 6.6h10.2v-1H13c-.9 0-.9.9-.9.9h1z" class="primary" style="fill: rgb(54, 124, 43);"></path><path d="M21.6 11.3h-2.3l.5-.8-.5-.3-1.1 1.8.5.3.4-.7 1.3 2.1c.4-.1.7-.1 1.1-.1h.2z" class="tertiary" style="fill: rgb(128, 128, 128);"></path><path d="M15 7.5c-.1 0-.3 0-.4.1-.1 0-.2.1-.2.2-.2.2-.3.4-.3.7v2c0 .5.4.8.8.9 1.8.3 3.2 1.7 3.9 2.9.5-.2 1-.3 1.5-.4.4-.1.7-.1 1.1-.1h.2V7.5z" class="window" style="opacity: 0.3; fill: rgb(93, 201, 232);"></path><path d="M14.1 12.3h.6c.2 0 .3.1.5.1.3.1.5.2.8.3h.1c.2.1.5.3.7.5s.4.4.5.6l.1.1c.1.2.3.5.4.7.3-.2.7-.3 1.1-.5-.8-1.2-2.1-2.6-3.9-2.9-.4-.1-.8-.5-.8-.9V8.4c0-.3.1-.5.3-.7.1-.1.2-.1.2-.2.1 0 .2-.1.4-.1h6.6v6.199999999999999c.3 0 .7.2 1.2.4.4.3.7.6.9.8h.1c.4-.1.7-.4.7-.9V7.6l.9-1.9s-1.9 0-1.9 1.9v3.8h-.9V6.6H12.5s0 .9.9.9h.1v6.4zM9.1 15.6c.6.2 1.2.6 1.6 1l1.4 1.4v-3.2.2z" class="quaternary" style="fill: rgb(51, 51, 51);"></path><path d="m9.1 15.6 3-.4v-.6c0-.1-.1-.3-.1-.4-.2-.2-.4-.2-.6-.2-1.2-.1-2.4.3-3.6.6-.8.2-1.5.5-2.2.7v.8c.6-.5 1.4-.7 2.2-.7.6 0 1 0 1.3.2" class="tertiary" style="fill: rgb(128, 128, 128);"></path><path d="M15.4 15.8v-1.5c0-.3-.2-.5-.5-.5h-1.5c-.1 0-.2 0-.2.1-.1.1-.3.2-.3.4v1.5c0 .3.2.5.5.5h1.5c.3 0 .5-.2.5-.5" class="primary" style="fill: rgb(54, 124, 43);"></path><path d="M15.4 15.8v-1.5c0-.3-.2-.5-.5-.5h-1.5c-.1 0-.2 0-.2.1-.1.1-.3.2-.3.4v1.5c0 .3.2.5.5.5h1.5c.3 0 .5-.2.5-.5" class="highlight" style="opacity: 0.3; fill: rgb(255, 255, 255);"></path><path d="m18.7 17.9-.9-1h-3.4l.2 1z" class="primary" style="fill: rgb(54, 124, 43);"></path><path d="m18.7 17.9-.9-1h-3.4l.2 1z" class="shadow" style="opacity: 0.3; fill: rgb(51, 51, 51);"></path><path d="M24.4 11.5v2.6c0 .5-.3.8-.7.9h-.1c-.2-.3-.5-.6-.9-.8-.4-.3-.9-.4-1.2-.4h-.2c-.3 0-.7 0-1.1.1-.5.1-1 .3-1.5.4-.4.2-.8.3-1.1.5-.1-.3-.2-.5-.4-.7l-.1-.1c-.1-.2-.3-.4-.5-.6s-.4-.4-.7-.5h-.1c-.2-.1-.5-.3-.8-.3-.2-.1-.3-.1-.5-.1h-.6l-1 1.7c.1 0 .1-.1.2-.1h1.5c.3 0 .5.2.5.5v1.5c0 .3-.2.5-.5.5h-1.2l.7.7h3.4l.8.9h-4.1l-.1-.9.8 4.7h-1.3l.6.8c.3.3.4.7.5 1.1H17c.1-.4.2-.8.5-1.1l2.6-3.3 1.4-1.7c.6-.7 1.5-1.1 2.5-1.1s1.8.4 2.5 1.1l1.3 1.6.1.1 1.3 1.6h.5l1.4-6.6c-.1-.4-2.1-2.4-6.7-3" class="primary" style="fill: rgb(54, 124, 43);"></path><path d="M17.6 14.8c-.1-.3-.2-.5-.4-.7l-.1-.1c-.1-.2-.3-.4-.5-.6s-.4-.4-.7-.5h-.1c-.2-.1-.5-.3-.8-.3-.2-.1-.3-.1-.5-.1H14l-.6 1.1-.3.6 1-.7c.5 0 1.3.2 2 .6.6.4 1 1 1.3 1.4.2.3.4.6.5.8 0-.2 0-.5-.1-.8-.1-.5-.1-.6-.2-.7" class="highlight" style="opacity: 0.3; fill: rgb(255, 255, 255);"></path><path d="M5.8 17.2c.5-.6 1.3-.9 2.1-.9s1.6.3 2.1 1l2 2.2c.1.1.2.1.3.1s.2 0 .3-.1c.2-.2.2-.5 0-.7l-.7-.7-1.4-1.4c-.4-.5-1-.8-1.6-1-.4-.1-.8-.2-1.2-.2-.8 0-1.6.3-2.2.7-.2.2-.4.3-.6.5l-.9 1c-.2.2-.2.5 0 .7s.5.2.6 0z" class="primary" style="fill: rgb(54, 124, 43);"></path><path d="M24.4 12.2v.4c3.1.2 4.9.8 4.9.8s-1.5-.9-4.9-1.2" class="secondary" style="fill: rgb(255, 222, 0);"></path><path d="M28.8 18.8c.3.9 1 .9 1 .9l1.2-5.6-3.3-.5c0 .1.8 4.3 1.1 5.2M25.8 13.4l.3 1.6.2 1 1 .9-.5-1.9-.4-1.5zM24.7 13.2 25 15v.1l.8.4-.1-.5-.5-1.7zM18.8 15.3c.5.2 1 .5 1.5.7.4-.2 1.5-.9 1.4-1.2s-1-.2-1.5-.1c-.6.1-1.1.4-1.4.6M17.4 20.6l-1.4-.4c0 .2-.1.4-.1.7l1.5.3zM17.3 21.4l-1.5-.3v.9l1.5.2zM18.1 18.9l-1.5-.7c-.1.2-.2.5-.3.8l1.5.5zM17.7 19.8l-1.5-.5c-.1.2-.1.4-.2.6l1.5.4c0-.2.1-.3.2-.5" class="quaternary" style="fill: rgb(51, 51, 51);"></path><path d="M27.8 18.6c-.4-1.7-1.9-3-3.8-3-2 0-3.6 1.5-3.8 3.4l1.4-1.7c.6-.7 1.5-1.1 2.5-1.1s1.8.4 2.5 1.1l1.3 1.6.1.1c-.2-.1-.2-.2-.2-.4" class="shadow" style="opacity: 0.3; fill: rgb(51, 51, 51);"></path><path d="M25.7 17.2c-.2-.1-.8-.6-1.7-.6s-1.6.5-1.7.6l-4.8 6c0 .1-.4 1.1.2 2 .5.8 1.3.9 1.4 1h9.8c.1 0 1-.2 1.4-1 .6-.9.2-1.9.2-2z" class="tertiary" style="fill: rgb(128, 128, 128);"></path><path d="M25.7 17.2c-.2-.1-.8-.6-1.7-.6s-1.6.5-1.7.6l-4.8 6c0 .1-.4 1.1.2 2 .5.8 1.3.9 1.4 1h9.8c.1 0 1-.2 1.4-1 .6-.9.2-1.9.2-2z" class="shadow" style="opacity: 0.3; fill: rgb(51, 51, 51);"></path><path d="M26.6 21.7h-5.4c-.4 0-.8.3-.8.8v1.9c0 .4.3.8.8.8h5.4c.4 0 .8-.3.8-.8v-1.9c0-.5-.4-.8-.8-.8" class="primary" style="fill: rgb(54, 124, 43);"></path><path d="M26.6 21.7h-5.4c-.4 0-.8.3-.8.8v1.9c0 .4.3.8.8.8h5.4c.4 0 .8-.3.8-.8v-1.9c0-.5-.4-.8-.8-.8" class="shadow" style="opacity: 0.3; fill: rgb(51, 51, 51);"></path><path d="M17.7 23.9c0-.4.1-.8.4-1.1l4-5c.5-.5 1.1-.9 1.9-.9s1.4.3 1.9.9l4 5c.2.3.4.7.4 1.1 0 .9-.7 1.6-1.5 1.7h-9.3c-1 0-1.8-.7-1.8-1.7m-.7 0c0 1.3 1.1 2.4 2.4 2.4h9.3c1.3-.1 2.2-1.2 2.2-2.4 0-.6-.2-1.1-.5-1.5l-4-5c-.6-.7-1.5-1.1-2.5-1.1s-1.8.4-2.5 1.1l-4 5c-.2.4-.4 1-.4 1.5" class="quaternary" style="fill: rgb(51, 51, 51);"></path><circle cx="28.6" cy="23.9" r="1.7" class="secondary" style="fill: rgb(255, 222, 0);"></circle><circle cx="19.4" cy="23.9" r="1.7" class="secondary" style="fill: rgb(255, 222, 0);"></circle><circle cx="24" cy="19.6" r="2.5" class="secondary" style="fill: rgb(255, 222, 0);"></circle><circle cx="24" cy="19.6" r="1.7" class="shadow" style="opacity: 0.3; fill: rgb(51, 51, 51);"></circle><circle cx="24" cy="19.6" r="1.1" class="secondary" style="fill: rgb(255, 222, 0);"></circle><circle cx="19.4" cy="23.9" r=".7" class="shadow" style="opacity: 0.3; fill: rgb(51, 51, 51);"></circle><circle cx="28.6" cy="23.9" r=".7" class="shadow" style="opacity: 0.3; fill: rgb(51, 51, 51);"></circle><path d="M25.4 23.2c-.8 0-1.4.6-1.4 1.4s.6 1.4 1.4 1.4 1.4-.6 1.4-1.4-.6-1.4-1.4-1.4M22.4 23.2c-.8 0-1.4.6-1.4 1.4s.6 1.4 1.4 1.4 1.4-.6 1.4-1.4-.6-1.4-1.4-1.4" class="quaternary" style="fill: rgb(51, 51, 51);"></path><path d="m26.7 20.5-1.7.4c-.6.1-1.5.1-2.1 0l-1.7-.4c-.3-.1-.6.1-.6.4v.3c0 .3.3.6.6.7l1.9.4v.2c0 .5.4.8.8.8.5 0 .8-.4.8-.8v-.2l1.9-.4c.3-.1.6-.4.6-.7v-.3c.1-.3-.2-.5-.5-.4" class="primary" style="fill: rgb(54, 124, 43);"></path><path d="M25.4 23.8c-.4 0-.7.3-.7.7s.3.7.7.7.7-.3.7-.7-.3-.7-.7-.7M22.4 23.8c-.4 0-.7.3-.7.7s.3.7.7.7.7-.3.7-.7-.2-.7-.7-.7" class="tertiary" style="fill: rgb(128, 128, 128);"></path></g></svg>