<svg data-icon-name="TractorTrack" xmlns="http://www.w3.org/2000/svg" xml:space="preserve" viewBox="0 0 32 32" class="tractor-track" style="background-image: none; background-position: 0% 0%; display: inline; fill: rgb(51, 51, 51); height: 32px; width: 32px;"><path id="tractor-track__outline" d="M6.6 26.3c-3.7 0-6.6-3-6.6-6.6 0-2.7 1.7-5.1 4-6.1l-1.5-.5c-.3-.1-.6-.4-.7-.7s0-.7.3-1c.1-.1 1.8-1.7 4.5-1.7V7.6c-.5 0-.9-.5-.9-1v-1c0-.9.7-1.9 1.9-1.9H17c.4 0 .8.3.9.6.6-.5 1.3-.6 1.9-.6.3 0 .7.2.9.5s.2.7 0 1l-.8 1.7v1.7c7.6.6 11.5 2.7 11.7 2.8.4.2.6.6.5 1l-.9 6.1.6.6c.2.2.3.4.3.7v1.9c0 .6-.4 1-1 1h-.5l-.6.6c-.2.2-.4.3-.7.3h-4c-.6 1.6-2.2 2.8-4 2.8H6.6z" class="outline" style="fill: rgb(255, 255, 255);"></path><g id="tractor-track__main_shape"><path d="M15.1 15h-.9s-.9-5.2-5.6-5.2V6.6h5.6c.7 0 .9.3.9.9z" class="quinary" style="fill: rgb(255, 255, 255);"></path><path d="M6.6 14.1v10.3l21.6-5.6v-4.7H16v.9h-2.8l-4.7-2.8z" class="primary" style="fill: rgb(54, 124, 43);"></path><path d="M6.6 14.1v10.3l21.6-5.6v-4.7H16v.9h-2.8l-4.7-2.8z" class="primary" style="fill: rgb(54, 124, 43);"></path><path d="M21.6 18.8 8.5 14.3S7.4 14 6.6 14C3.5 14 1 16.5 1 19.6s2.5 5.6 5.6 5.6h14.5c1.8 0 3.3-1.5 3.3-3.3s-1.4-2.8-2.8-3.1" class="quaternary" style="fill: rgb(51, 51, 51);"></path><path d="M6.6 24.4h14.6l.9-4.5-13.6-4.5zM16.9 4.7H7.5c-.9 0-.9.9-.9.9h10.3z" class="primary" style="fill: rgb(54, 124, 43);"></path><path d="m13.7 8.6-.5-.3-1.1 1.9.4.3z" class="tertiary" style="fill: rgb(128, 128, 128);"></path><path d="M16 9.4v3.7h-.9l-2.3-3.7z" class="tertiary" style="fill: rgb(128, 128, 128);"></path><path d="M6.6 5.6v.9h.9v5.6l5.6 2.8 2.8.9V5.6zm8.5 9.4h-.9s-.9-5.2-5.6-5.2V6.6h5.6c.7 0 .9.3.9.9zM26.3 13.1l-3.7 3.8h-2.8v-3.8z" class="quaternary" style="fill: rgb(51, 51, 51);"></path><path d="M23.5 14.1s2.8 1.9 2.8 4.7-.9 3.8-.9 3.8h3.8l.9-.9v-7.5h-6.6z" class="primary" style="fill: rgb(54, 124, 43);"></path><path d="M23.5 14.1s2.8 1.9 2.8 4.7-.9 3.8-.9 3.8h3.8l.9-.9v-7.5h-6.6z" class="primary" style="fill: rgb(54, 124, 43);"></path><path d="M23.5 14.1s2.8 1.9 2.8 4.7-.9 3.8-.9 3.8h3.8l.9-.9v-7.5h-6.6z" class="shadow" style="opacity: 0.3; fill: rgb(51, 51, 51);"></path><path d="m30.1 18.8.9.9v1.9h-2.8s0-7.5-5.6-7.5c-3.7 0-4.7 1.9-4.7 1.9H16V9.4c9.9 0 15 2.8 15 2.8z" class="primary" style="fill: rgb(54, 124, 43);"></path><path d="m28.2 16-3.8-3.8 2.8 1z" class="quaternary" style="fill: rgb(51, 51, 51);"></path><path d="M17.9 11.2c7.9 0 10.3.9 10.3.9s-2.4-1.9-10.3-1.9z" class="secondary" style="fill: rgb(255, 222, 0);"></path><path d="m31 12.2-.9 7.5h-1l-.9-7.5z" class="quaternary" style="fill: rgb(51, 51, 51);"></path><circle cx="13.2" cy="23.4" r="1.9" class="quaternary" style="fill: rgb(51, 51, 51);"></circle><circle cx="16" cy="23.4" r="1.9" class="quaternary" style="fill: rgb(51, 51, 51);"></circle><circle cx="16" cy="23.4" r=".9" class="tertiary" style="fill: rgb(128, 128, 128);"></circle><path d="m20.7 21.5-5.6-1.8v-.9l5.6 1.9z" class="quinary" style="fill: rgb(255, 255, 255);"></path><circle cx="13.2" cy="23.4" r=".9" class="tertiary" style="fill: rgb(128, 128, 128);"></circle><circle cx="21.2" cy="22" r="2.3" class="secondary" style="fill: rgb(255, 222, 0);"></circle><circle cx="21.2" cy="22" r="1.4" class="shadow" style="opacity: 0.3; fill: rgb(51, 51, 51);"></circle><path d="m10.4 18.8 4.7 1.8.9-1.8-5.6-1.9z" class="quaternary" style="fill: rgb(51, 51, 51);"></path><circle cx="6.6" cy="19.7" r="4.7" class="secondary" style="fill: rgb(255, 222, 0);"></circle><path d="M6.6 15.9c-2.1 0-3.8 1.7-3.8 3.8s1.7 3.8 3.8 3.8 3.8-1.7 3.8-3.8-1.7-3.8-3.8-3.8m0 7.1c-1.8 0-3.3-1.5-3.3-3.3s1.5-3.3 3.3-3.3 3.3 1.5 3.3 3.3S8.4 23 6.6 23" class="shadow" style="opacity: 0.3; fill: rgb(51, 51, 51);"></path><circle cx="6.6" cy="19.7" r="1.9" class="shadow" style="opacity: 0.3; fill: rgb(51, 51, 51);"></circle><path d="m2.8 12.2 9.5 2.8h.9s-.9-4.2-6.6-4.2c-2.3 0-3.8 1.4-3.8 1.4" class="primary" style="fill: rgb(54, 124, 43);"></path><path d="m2.9 12.2 9.4 2.8s-1.4-3.8-5.6-3.8c-2.4 0-3.8 1-3.8 1" class="quaternary" style="fill: rgb(51, 51, 51);"></path><path d="M15.1 15h-.9s-.9-5.2-5.6-5.2V6.6h5.6c.7 0 .9.3.9.9z" class="window" style="opacity: 0.3; fill: rgb(93, 201, 232);"></path><path d="M19.8 4.7s-1.9 0-1.9 1.9v5.6h.9V6.6z" class="quaternary" style="fill: rgb(51, 51, 51);"></path><path d="M18.8 10.3h-1.9v2.8c0 .6.4.9.9.9s.9-.4.9-.9v-2.8z" class="quaternary" style="fill: rgb(51, 51, 51);"></path></g></svg>