<svg data-icon-name="TractorFourWheelDrive" xmlns="http://www.w3.org/2000/svg" xml:space="preserve" id="tractor-four-wheel-drive__main_shape" x="0" y="0" version="1.1" viewBox="0 0 32 32" class="tractor-four-wheel-drive" style="background-image: none; background-position: 0% 0%; display: inline; fill: rgb(51, 51, 51); height: 32px; width: 32px;"><path d="M22.1 26.3c-2.1 0-4-1.1-5.2-2.8h-3.7c-.5 0-1-.4-1-.9h-.4c-1 2.2-3.2 3.8-5.7 3.8-3.4 0-6.2-2.8-6.2-6.2 0-1.1.3-2.1.8-3.1l-.4-.4c-.3-.3-.4-.7-.2-1.1 0-.1 1.2-3.1 5.4-3.4h.6c1.3 0 2.4.3 3.2.6v-1.5c0-.6.4-1 1-1h.9v-3c-.6-.3-.9-.9-.9-1.7 0-1.1.8-1.9 1.9-1.9h9.4c.6 0 1 .4 1 1v.9c0 .5-.4 1-.9 1v2.7c6.2.3 9.8 2.9 9.9 3 .3.2.5.6.4 1L31 18c.6.3 1 .9 1 1.7v.9c0 1.1-.8 1.9-1.9 1.9h-2.3c-1 2.3-3.2 3.8-5.7 3.8" class="outline" style="fill: rgb(255, 255, 255);"></path><path d="M18.8 14.1h-1.9c0-1.9-1.9-3.8-3.8-3.8V7.5c0-.6.4-.9.9-.9h3.8c.6 0 .9.4.9.9v6.6z" class="quinary" style="fill: rgb(255, 255, 255);"></path><path d="M30.1 18.8h-1.9v-4.7H10.4v.9l-4.7-1.9L1 15.9l4.7 3.8v1.9h7.5v.9h5.6v-.9H30c.6 0 .9-.4.9-.9v-.9c.1-.7-.3-1-.8-1" class="primary" style="fill: rgb(54, 124, 43);"></path><path d="M30.1 18.8h-1.9v-4.7H10.4v.9l-4.7-1.9L1 15.9l4.7 3.8v1.9h7.5v.9h5.6v-.9H30c.6 0 .9-.4.9-.9v-.9c.1-.7-.3-1-.8-1" class="shadow" style="opacity: 0.3; fill: rgb(51, 51, 51);"></path><path d="M30.1 18.8h-1.9v-4.7H10.4v.9l-4.7-1.9L1 15.9l4.7 3.8v1.9h7.5v.9h5.6v-.9H30c.6 0 .9-.4.9-.9v-.9c.1-.7-.3-1-.8-1" class="shadow" style="opacity: 0.3; fill: rgb(51, 51, 51);"></path><path d="m17.6 8.7-.5-.3-1.1 1.9.5.3z" class="tertiary" style="fill: rgb(128, 128, 128);"></path><path d="M19.2 9.4v3.7l-2.3-3.7z" class="tertiary" style="fill: rgb(128, 128, 128);"></path><circle cx="6.2" cy="20.2" r="5.2" class="quaternary" style="fill: rgb(51, 51, 51);"></circle><circle cx="6.2" cy="20.2" r="2.8" class="secondary" style="fill: rgb(255, 222, 0);"></circle><circle cx="6.2" cy="20.2" r=".9" class="shadow" style="opacity: 0.3; fill: rgb(51, 51, 51);"></circle><path d="M29.7 19.7h-.6s-.9 0-1.2-.9c-.4-1.4-.9-4.7-7.2-4.7v-3.8c6.6 0 10.3 2.8 10.3 2.8z" class="primary" style="fill: rgb(54, 124, 43);"></path><path d="M20.7 11.2c4.7 0 7.5.9 7.5.9s-2.3-1.4-7.5-1.4z" class="secondary" style="fill: rgb(255, 222, 0);"></path><path d="m31 13.1-1.1 5.6s-.8 0-1-.9c-.3-.9-1.1-5.2-1.1-5.2zM27.2 15.9l-.9-.9-.5-2.7.5.1zM25.8 14.5l-.8-.4-.4-2.1.6.2z" class="quaternary" style="fill: rgb(51, 51, 51);"></path><path d="M21.6 5.6H11.3c0-.6.4-.9.9-.9h9.4z" class="primary" style="fill: rgb(54, 124, 43);"></path><path d="M19.8 5.6h-8.4c0 .6.4.9.9.9h7.5z" class="quaternary" style="fill: rgb(51, 51, 51);"></path><path d="M12.2 5.6v10.3h5.6l2.8-1.9V5.6zm6.6 8.5h-1.9c0-1.9-1.9-3.8-3.8-3.8V7.5c0-.6.4-.9.9-.9h3.8c.6 0 .9.4.9.9v6.6z" class="quaternary" style="fill: rgb(51, 51, 51);"></path><path d="M18.8 14.1h-1.9c0-1.9-1.9-3.8-3.8-3.8V7.5c0-.6.4-.9.9-.9h3.8c.6 0 .9.4.9.9v6.6z" class="window" style="opacity: 0.3; fill: rgb(93, 201, 232);"></path><path d="M19.8 8.4h.5v4.7h-.5z" class="tertiary" style="fill: rgb(128, 128, 128);"></path><path d="M16 15v.9h-3.8V15h-.9l-.9-1.9v-1.9h1.9c2 0 3.7 1.7 3.7 3.8" class="primary" style="fill: rgb(54, 124, 43);"></path><path d="m10.397 13.103 1.9-.006.006 1.9-1.9.006z" class="quaternary" style="fill: rgb(51, 51, 51);"></path><path d="M16 15c0-2.1-1.7-3.8-3.8-3.8h-1.9v.9h1.9c2.9.1 3.8 2.9 3.8 2.9" class="highlight" style="opacity: 0.3; fill: rgb(255, 255, 255);"></path><path d="M13.2 16.9H17s-.9.9-.9 3.7v2h-2.8v-5.7z" class="quaternary" style="fill: rgb(51, 51, 51);"></path><path d="M15.1 20.6h-1.9l-1-3.7h1.9z" class="tertiary" style="fill: rgb(128, 128, 128);"></path><circle cx="22.1" cy="20.2" r="5.2" class="quaternary" style="fill: rgb(51, 51, 51);"></circle><circle cx="22.1" cy="20.2" r="2.8" class="secondary" style="fill: rgb(255, 222, 0);"></circle><circle cx="22.1" cy="20.2" r=".9" class="shadow" style="opacity: 0.3; fill: rgb(51, 51, 51);"></circle><path d="M6.2 14.1c3.1 0 3.1 1.9 5.2 1.9 0 0-1-2.8-5.2-2.8S1 15.9 1 15.9c2.1 0 2.1-1.8 5.2-1.8" class="primary" style="fill: rgb(54, 124, 43);"></path><circle cx="16" cy="15" r=".9" class="quaternary" style="fill: rgb(51, 51, 51);"></circle></svg>