<svg xmlns="http://www.w3.org/2000/svg" width="32" height="32" fill="none">
  <path fill="#fff" d="M4.39 13.722a7.436 7.436 0 0 0-.907.286c-.432.172-.64.315-.64.315s-.334-.486.138-.895c.247-.214.66-.42 1.19-.588.12-.037.244-.073.373-.107a9.787 9.787 0 0 1 1.972-.287 10.668 10.668 0 0 1 1 .001V6.76c-.045-.072-.416-.633-1.039-.633.393-.254 1.174-.254 1.527-.254h8.316s.326 0 .477.278c.03.053.05.109.063.164.058.232 0 .453 0 .453h-.894v5.562h.005a53.83 53.83 0 0 1 1.46.02v-1.442h.424V9.842a1.867 1.867 0 0 1 .108-.637c.06-.158.143-.292.24-.406.546-.645 1.54-.645 1.54-.645l-.994 1.688v1.066h.472v1.525c7.586.497 10.844 2.65 11.52 3.163l.027.021h.11l-.013.079.012.01-.081.445-.694 4.548.775.693v1.689h-.895l-.1.088h.1l-.994.8H27.1v-1.688h-.069a4.644 4.644 0 0 1-.876 2.017 4.674 4.674 0 0 1-8.331-2.017h-4.977a6.064 6.064 0 1 1-7.516-7.79l-.941-.77Zm9.128 9.559a7.064 7.064 0 1 1-11.243-8.135.999.999 0 0 1-.254-.255l.823-.568c-.823.568-.824.567-.824.567v-.001l-.002-.002-.002-.004-.006-.008-.012-.019a1.551 1.551 0 0 1-.107-.195 1.771 1.771 0 0 1-.146-.49 1.641 1.641 0 0 1 .58-1.498c.475-.411 1.202-.708 1.959-.905.656-.17 1.419-.288 2.232-.323V7.143a.191.191 0 0 0-.02-.01c-.013-.006-.017-.006-.019-.006a1 1 0 0 1-.542-1.84c.404-.261.898-.342 1.211-.376.343-.038.672-.038.848-.038h8.326v.895-.895h.032a1.336 1.336 0 0 1 .152.013c.084.011.198.033.325.077.254.088.616.286.846.71.193.353.216.704.21.917a2.093 2.093 0 0 1-.051.407l-.003.013-.002.005v.004s-.001.001-.863-.224l.862.225a1 1 0 0 1-.862.742v1.275c.084-.286.213-.543.382-.77.306-.41.698-.661 1.043-.815a3.524 3.524 0 0 1 1.301-.298h.049s.002 0 .002 1v-1a1 1 0 0 1 .862 1.507l-.832 1.413c.27.18.448.486.448.834v.598c6.621.575 9.855 2.403 10.922 3.147a1 1 0 0 1 .733 1.008c.003.075-.002.15-.015.225l-.079.43-.61 3.999.372.332a1 1 0 0 1 .333.745v1.689a1 1 0 0 1-1 1h-.432l-.83.667a1 1 0 0 1-.627.221H27.1c-.064 0-.126-.006-.187-.017a5.674 5.674 0 0 1-9.866-1.67h-3.529Z" />
  <path fill="#fff" d="M15.071 16.112h-.895S12.288 11.44 8.61 11.44V7.762h5.566c.696 0 .895.298.895.895v7.455Z"/>
  <path fill="#367C3C" class="color1" d="M12.188 18.994v3.287H27.1v-6.664h-6.462l-8.45 3.377Z"/>
  <path fill="#333" d="M12.188 18.994v3.287H27.1v-6.664h-6.462l-8.45 3.377Z" opacity=".3"/>
  <path fill="#333" d="M12.188 18.994v3.287H27.1v-6.664h-6.462l-8.45 3.377Z" opacity=".3"/>
  <path fill="#367C3C" class="color1" d="m29.982 20.593.895.8v1.688h-.895l-.994.888H27.1v-2.488c0-1.688-1.459-5.202-4.84-5.202-4.133 0-4.536 2.715-4.536 2.715h-1.757V12.33c11.133 0 14.911 3.376 14.911 3.376l-.895 4.887Z"/>
  <path fill="#333" d="M28.094 18.105h-.873l-1.893-3.13 1.772.287.994 2.843Z"/>
  <path fill="#FFDE1A" class="color2" d="M17.855 14.014c7.952 0 10.057.94 10.057.94l.342-.295c-1.382-.54-5.607-1.53-10.4-1.53v.886Z"/>
  <path fill="#333" d="M19.743 8.154s-1.888 0-1.888 1.688v4.975h.894V9.842l.994-1.688Z"/>
  <path fill="#367C3C" class="color1" d="M16.32 5.873H8.004c-.353 0-1.134 0-1.527.254.665 0 1.044.64 1.044.64h9.34s.088-.338-.064-.616c-.151-.278-.477-.278-.477-.278Z"/>
  <path fill="#fff" d="M17.855 22.28c0-2.487 1.888-4.175 5.566-4.175v4.176h-5.566Z"/>
  <path fill="#333" d="m30.877 15.617-.895 5.864s-.795.09-.894-.8c-.068-.602-.455-2.881-.698-4.285.448-.48.698-.779.698-.779h1.789Z"/>
  <path fill="gray" d="M14.075 9.862 13.64 9.6l-1.094 1.79.398.298 1.131-1.826Z"/>
  <path fill="gray" d="m15.361 12.366.605 3.746-.83-2.234-1.876-2.784.32-.526 1.781 1.798Z"/>
  <path fill="#333" d="M7.516 6.768v6.461l-3.397.346 5.385 4.327h6.462V6.768h-8.45Zm7.555 9.344h-.895S12.288 11.44 8.61 11.44V7.762h5.566c.696 0 .895.298.895.895v7.455Z"/>
  <path fill="#5DC9E8" d="M15.155 16.173h-.9s-1.9-4.7-5.6-4.7v-3.7h5.6c.7 0 .9.3.9.9v7.5Z" opacity=".3"/>
  <path fill="#333" d="M19.32 10.908h-1.889v3.076c0 .66.398.989.895.989s.895-.44.895-.99v-3.075h.1ZM22.427 26.153a4.672 4.672 0 1 0 0-9.345 4.672 4.672 0 0 0 0 9.345Z"/>
  <path fill="#FFDE1A" class="color2" d="M22.427 24.264a2.783 2.783 0 1 0 0-5.567 2.783 2.783 0 0 0 0 5.567Z"/>
  <path fill="#333" d="M22.427 22.872a1.392 1.392 0 1 0 0-2.783 1.392 1.392 0 0 0 0 2.783Z" opacity=".3"/>
  <path fill="#367C3C" class="color1" d="M12.188 15.218s-.894-2.784-5.169-2.784c-1.84 0-3.436.473-4.038.994-.472.41-.137.895-.137.895s1.292-.895 4.175-.895c3.28 0 4.689 1.79 4.689 1.79l.48.1v-.1Z"/>
  <path fill="#333" d="M27.1 23.97h1.888l.994-.8H27.1v.8Z" opacity=".3"/>
  <path fill="gray" d="M11.294 20.785h3.837v-3.778h-3.837v3.777Z"/>
  <path fill="#333" d="M7.118 26.351a6.064 6.064 0 1 0 0-12.127 6.064 6.064 0 0 0 0 12.127Z"/>
  <path fill="#FFDE1A" class="color2" d="M7.118 23.767a3.48 3.48 0 1 0 0-6.959 3.48 3.48 0 0 0 0 6.959Z"/>
  <path fill="#333" d="M7.118 21.779a1.491 1.491 0 1 0 0-2.983 1.491 1.491 0 0 0 0 2.983Z" opacity=".3"/>
</svg>